<?xml version="1.0" standalone="no"?>
<!DOCTYPE svg PUBLIC "-//W3C//DTD SVG 1.1//EN" "http://www.w3.org/Graphics/SVG/1.1/DTD/svg11.dtd" >
<svg xmlns="http://www.w3.org/2000/svg">
<metadata>Generated by IcoMoon</metadata>
<defs>
<font id="icomoon" horiz-adv-x="1024">
<font-face units-per-em="1024" ascent="960" descent="-64" />
<missing-glyph horiz-adv-x="1024" />
<glyph unicode="&#x20;" horiz-adv-x="512" d="" />
<glyph unicode="&#xe900;" glyph-name="calendar" d="M163.553 309.397v0zM163.553 560.929v0zM860.446 560.929v0zM860.446 309.397v0zM634.884 78.554v0zM389.114 78.554v0zM389.114 791.774v0zM634.884 791.774v0zM376.323 832c0 17.673-14.327 32-32 32s-32-14.327-32-32h64zM312.323 724.747c0-17.673 14.327-32 32-32s32 14.327 32 32h-64zM711.676 832c0 17.673-14.327 32-32 32s-32-14.327-32-32h64zM647.676 724.747c0-17.673 14.327-32 32-32s32 14.327 32 32h-64zM194.744 316.548c-17.881 78.016-17.881 159.215 0 237.232l-62.383 14.298c-20.038-87.425-20.038-178.403 0-265.827l62.383 14.298zM829.257 553.78c17.882-78.016 17.882-159.215 0-237.231l62.383-14.298c20.036 87.424 20.036 178.402 0 265.827l-62.383-14.298zM627.418 109.67c-75.917-18.227-154.918-18.227-230.834 0l-14.94-62.234c85.735-20.582 174.977-20.582 260.711 0l-14.938 62.234zM396.584 760.658c75.916 18.225 154.917 18.225 230.834 0l14.938 62.232c-85.734 20.582-174.976 20.582-260.711 0l14.94-62.232zM396.584 109.67c-99.791 23.953-178.229 103.863-201.839 206.878l-62.383-14.298c28.895-126.071 125.233-225.033 249.282-254.814l14.94 62.234zM642.355 47.437c124.049 29.781 220.386 128.742 249.284 254.814l-62.383 14.298c-23.612-103.014-102.050-182.925-201.839-206.878l14.938-62.234zM627.418 760.658c99.789-23.956 178.227-103.866 201.839-206.879l62.383 14.298c-28.898 126.071-125.235 225.033-249.284 254.813l-14.938-62.232zM381.644 822.89c-124.049-29.78-220.387-128.742-249.282-254.813l62.383-14.298c23.61 103.013 102.048 182.922 201.839 206.878l-14.94 62.232zM176.647 574.769h670.705v64h-670.705v-64zM312.323 832v-107.253h64v107.253h-64zM647.676 832v-107.253h64v107.253h-64zM384 362.667c0-23.564-19.103-42.667-42.667-42.667s-42.667 19.103-42.667 42.667c0 23.564 19.103 42.667 42.667 42.667s42.667-19.103 42.667-42.667zM725.333 362.667c0-23.564-19.103-42.667-42.667-42.667s-42.667 19.103-42.667 42.667c0 23.564 19.103 42.667 42.667 42.667s42.667-19.103 42.667-42.667zM554.667 362.667c0-23.564-19.103-42.667-42.667-42.667s-42.667 19.103-42.667 42.667c0 23.564 19.103 42.667 42.667 42.667s42.667-19.103 42.667-42.667z" />
<glyph unicode="&#xe901;" glyph-name="square" d="M0 960h1024v-1024h-1024v1024z" />
<glyph unicode="&#xe902;" glyph-name="chart" d="M1024-21.333c0-23.565-19.102-42.667-42.667-42.667h-924.445c-31.419 0-56.889 25.472-56.889 56.887v924.446c0 23.564 19.103 42.667 42.667 42.667h28.445c23.564 0 42.667-19.103 42.667-42.667v-867.554h867.555c23.565 0 42.667-19.102 42.667-42.667v-28.446zM335.51 249.66c-16.586-16.235-43.107-16.235-59.693 0l-17.122 16.759c-17.091 16.73-17.094 44.241-0.008 60.975l245.121 240.073c21.747 21.135 56.363 21.135 78.11 0l126.69-124.075 207.437 202.961c16.589 16.229 43.102 16.226 59.686-0.007l17.131-16.768c17.088-16.73 17.092-44.238 0.009-60.972l-245.124-240.073c-21.747-21.137-56.358-21.137-78.106 0l-126.75 124.13-207.38-203.004z" />
<glyph unicode="&#xe903;" glyph-name="download" d="M512.043 254.251c-17.664 0-32 14.336-32 32v513.749c0 17.664 14.336 32 32 32s32-14.336 32-32v-513.749c0-17.664-14.336-32-32-32zM512.034 254.251c-8.491 0-16.683 3.371-22.656 9.429l-124.415 124.885c-12.459 12.544-12.416 32.811 0.085 45.269 12.544 12.459 32.768 12.459 45.227-0.085l101.759-102.187 101.76 102.187c12.459 12.544 32.683 12.544 45.227 0.085 12.501-12.459 12.544-32.725 0.085-45.269l-124.416-124.885c-5.973-6.059-14.165-9.429-22.656-9.429zM749.867 43.674h-475.307c-104.32 0-189.227 84.864-189.227 189.227v208.427c0 104.106 84.693 188.756 188.843 188.756h40.149c17.664 0 32-14.336 32-32s-14.336-32-32-32h-40.149c-68.864 0-124.843-55.935-124.843-124.756v-208.427c0-69.077 56.149-125.227 125.227-125.227h475.307c68.779 0 124.8 56.021 124.8 124.8v208.384c0 69.077-56.192 125.226-125.184 125.226h-39.765c-17.664 0-32 14.336-32 32s14.336 32 32 32h39.765c104.32 0 189.184-84.907 189.184-189.226v-208.384c0-104.107-84.736-188.8-188.8-188.8z" />
<glyph unicode="&#xe904;" glyph-name="edit" d="M701.717 825.175c24.858 24.859 58.577 38.825 93.734 38.825 73.207 0 132.557-59.348 132.557-132.559 0-35.157-13.965-68.874-38.827-93.733l-153.19-153.19c-70.699-70.703-159.283-120.858-256.282-145.105l-29.611-7.403c-32.661-8.166-62.247 21.419-54.081 54.080l7.402 29.611c24.249 96.998 74.404 185.583 145.107 256.282l153.19 153.192zM758.639 789.28c-1.69-18.644 7.863-43.239 29.636-65.012s46.366-31.327 65.011-29.637c6.95 10.916 10.722 23.669 10.722 36.812 0 37.864-30.694 68.559-68.557 68.559-13.146 0-25.899-3.773-36.813-10.72zM801.037 640.071c-22.195 8.954-42.261 23.187-58.018 38.941-15.753 15.754-29.986 35.82-38.938 58.015l-110.302-110.299c-62.067-62.067-106.223-139.727-127.825-224.783 85.056 21.602 162.714 65.758 224.781 127.825l110.302 110.3zM512 800c-41.212 0-82.419-4.737-122.807-14.211-106.671-25.021-189.961-108.311-214.982-214.982-18.947-80.776-18.947-164.838 0-245.615 25.021-106.671 108.311-189.961 214.982-214.98 80.776-18.948 164.838-18.948 245.615 0 106.671 25.020 189.961 108.309 214.98 214.98 9.476 40.388 14.212 81.6 14.212 122.807 0 17.673 14.327 32 32 32s32-14.327 32-32c0-46.114-5.299-92.228-15.902-137.421-30.571-130.338-132.339-232.107-262.677-262.677-90.385-21.201-184.457-21.201-274.843 0-130.336 30.571-232.103 132.339-262.676 262.673-21.202 90.389-21.202 184.461 0 274.848 30.572 130.336 132.34 232.103 262.676 262.675 45.194 10.601 91.308 15.902 137.423 15.902 17.673 0 32-14.327 32-32s-14.327-32-32-32z" />
<glyph unicode="&#xe905;" d="M512-64c282.769 0 512 229.231 512 512s-229.231 512-512 512c-282.77 0-512-229.23-512-512s229.23-512 512-512z" />
<glyph unicode="&#xe906;" d="M512.013 759.656l16.576-51.018h53.641l-43.396-31.53 16.576-51.018-43.396 31.532-43.401-31.532 16.576 51.018-43.396 31.53h53.641l16.58 51.018z" />
<glyph unicode="&#xe907;" d="M291.636 668.372l47.8-24.352 37.93 37.928-8.394-52.98 47.798-24.354-52.982-8.392-8.392-52.984-24.354 47.798-52.98-8.394 37.93 37.93-24.356 47.8z" />
<glyph unicode="&#xe908;" d="M200.354 448.009l51.018 16.58v53.641l31.528-43.401 51.020 16.58-31.534-43.401 31.534-43.396-51.020 16.576-31.528-43.401v53.645l-51.018 16.576z" />
<glyph unicode="&#xe909;" d="M291.636 227.627l24.354 47.804-37.928 37.926 52.982-8.393 24.35 47.795 8.394-52.979 52.98-8.393-47.792-24.354 8.39-52.979-37.93 37.926-47.8-24.354z" />
<glyph unicode="&#xe90a;" d="M512.013 136.354l-16.58 51.017h-53.641l43.401 31.531-16.58 51.017 43.401-31.531 43.396 31.531-16.576-51.017 43.396-31.531h-53.641l-16.576-51.017z" />
<glyph unicode="&#xe90b;" d="M732.382 227.627l-47.799 24.354-37.931-37.931 8.393 52.983-47.795 24.354 52.979 8.393 8.393 52.979 24.354-47.795 52.979 8.393-37.931-37.931 24.358-47.799z" />
<glyph unicode="&#xe90c;" d="M823.667 448.009l-51.021-16.576v-53.645l-31.526 43.401-51.017-16.576 31.531 43.396-31.531 43.401 51.017-16.58 31.526 43.401v-53.645l51.021-16.576z" />
<glyph unicode="&#xe90d;" d="M732.382 668.374l-24.354-47.8 37.926-37.93-52.983 8.396-24.35-47.798-8.393 52.982-52.979 8.394 47.795 24.352-8.393 52.978 37.931-37.928 47.799 24.354z" />
<glyph unicode="&#xe90e;" glyph-name="filter" d="M430.093 166.707h-268.843c-17.664 0-32 14.336-32 32s14.336 32 32 32h268.843c17.664 0 32-14.336 32-32s-14.336-32-32-32zM818.82 580.25h-268.8c-17.664 0-32 14.336-32 32s14.336 32 32 32h268.8c17.664 0 32-14.336 32-32s-14.336-32-32-32zM260.821 682.667c-37.931 0-68.821-30.549-68.821-68.139 0-37.547 30.891-68.053 68.821-68.053 37.973 0 68.821 30.507 68.821 68.053 0 37.589-30.848 68.139-68.821 68.139zM260.821 482.475c-73.216 0-132.821 59.221-132.821 132.053s59.605 132.139 132.821 132.139c73.259 0 132.821-59.307 132.821-132.139s-59.563-132.053-132.821-132.053zM741.884 268.459c-37.973 0-68.864-30.549-68.864-68.096 0-37.589 30.891-68.096 68.864-68.096 37.931 0 68.779 30.507 68.779 68.096 0 37.547-30.848 68.096-68.779 68.096zM741.884 68.267c-73.259 0-132.864 59.264-132.864 132.096s59.605 132.096 132.864 132.096c73.216 0 132.779-59.264 132.779-132.096s-59.563-132.096-132.779-132.096z" />
<glyph unicode="&#xe90f;" glyph-name="upload" d="M796.314 563.146c-39.437 160.104-198.771 257.312-355.887 217.123-122.778-31.408-211.93-139.545-221.116-268.204-87.179-14.647-146.197-98.543-131.82-187.379 12.78-78.98 79.936-136.819 158.484-136.503h133.319v54.345h-133.319c-58.904 0-106.655 48.661-106.655 108.685s47.751 108.685 106.655 108.685c14.726 0 26.664 12.164 26.664 27.174-0.134 135.055 107.2 244.65 239.733 244.784 114.726 0.117 213.491-82.534 235.682-197.236 2.193-11.452 11.311-20.203 22.665-21.739 72.896-10.577 123.571-79.369 113.19-153.651-9.318-66.701-65.207-116.365-131.324-116.702h-106.654v-54.345h106.654c103.083 0.32 186.394 85.734 186.082 190.775-0.26 87.441-58.995 163.439-142.353 184.189zM493.696 452.015l-106.654-108.685 37.596-38.31 61.327 62.221v-260.574h53.329v260.574l61.056-62.221 37.598 38.31-106.654 108.685c-10.402 10.534-27.196 10.534-37.598 0z" />
<glyph unicode="&#xe910;" glyph-name="plus" d="M512 960c-282.88 0-512-229.12-512-512s229.12-512 512-512 512 229.12 512 512-229.12 512-512 512zM682.667 418.987h-138.667v-141.653h-63.147v141.653h-139.52v61.44h139.52v138.24h63.147v-138.24h138.667v-61.44z" />
<glyph unicode="&#xe911;" glyph-name="Fill-2" horiz-adv-x="1317" d="M1045.149 822.776l-530.982-579.784-242.745 265.103c-28.64 31.232-75.033 31.232-103.657 0-28.639-31.263-28.639-81.951 0-113.215l294.584-321.65c14.316-15.639 33.059-23.453 51.817-23.453 18.787 0 37.546 7.813 51.861 23.453l582.807 636.371c28.602 31.263 28.602 81.911 0 113.175-28.64 31.263-75.053 31.263-103.686 0zM1045.149 822.776l-530.982-579.784-242.745 265.103c-28.64 31.232-75.033 31.232-103.657 0-28.639-31.263-28.639-81.951 0-113.215l294.584-321.65c14.316-15.639 33.059-23.453 51.817-23.453 18.787 0 37.546 7.813 51.861 23.453l582.807 636.371c28.602 31.263 28.602 81.911 0 113.175-28.64 31.263-75.053 31.263-103.686 0z" />
<glyph unicode="&#xe912;" glyph-name="info" d="M512 960c-282.453 0-512-229.547-512-512s229.547-512 512-512 512 229.547 512 512-229.547 512-512 512zM537.173 177.067h-58.453v362.667h58.453v-362.667zM544 622.080h-72.107v65.707h72.107v-65.707z" />
<glyph unicode="&#xe913;" glyph-name="gallery" d="M751.36 611.413c0-42.24-34.133-76.373-76.373-76.373s-76.373 34.133-76.373 76.373 34.133 76.373 76.373 76.373 76.373-34.133 76.373-76.373zM1004.373 616.96c-37.973 160.427-163.413 285.44-323.84 323.84-110.507 25.6-226.56 25.6-337.493 0-160.427-37.973-285.867-163.413-323.84-323.84-25.6-110.933-25.6-226.987 0-337.92 2.987-11.947 6.4-23.467 9.813-34.56l34.56 34.133c124.16 124.587 325.547 124.587 450.133 0l96-96 25.173 25.6c96.853 96 251.307 95.147 346.88 1.707 8.96 22.187 17.067 45.653 22.613 69.547 25.6 110.933 25.6 226.987 0 337.92zM674.987 469.76c-78.080 0-141.653 63.573-141.653 141.653s63.573 141.653 141.653 141.653 141.653-63.147 141.653-141.653-63.147-141.653-141.653-141.653zM950.187 147.627l-1.28 1.707c-68.267 81.92-192.427 87.467-267.52 11.947l-25.173-25.173 137.387-137.387c63.573 35.413 116.907 86.187 155.733 147.2l1.28 1.28zM729.6-29.867l-262.4 262.4c-98.56 98.56-258.56 98.56-357.547 0l-53.333-53.333c57.6-111.36 161.28-194.133 286.72-223.573 110.933-26.027 226.987-26.027 337.92 0 16.64 3.84 32.853 8.533 48.64 14.507z" />
<glyph unicode="&#xe914;" glyph-name="transaction" d="M370.156 433.004h187.858c4.243 0 9.656-0.878 12.729 1.17 4.682 3.219 9.656 8.339 10.827 13.46 1.609 7.023-3.219 12.729-10.68 14.484-4.243 0.878-8.632 1.17-12.875 0.878h-374.691c-3.658 0-7.315 0-10.973-0.439-8.047-1.17-12.582-5.999-12.729-14.045-0.146-8.632 4.389-13.753 12.875-15.070 3.658-0.439 7.315-0.585 10.973-0.585 62.327 0 124.507 0 186.834 0zM371.034 361.021h186.98c3.658-0.146 7.315 0 10.973 0.439 8.339 1.463 13.168 6.876 12.729 15.216-0.293 8.047-4.974 12.875-13.168 13.899-2.926 0.293-5.999 0.439-8.925 0.293h-377.91c-3.658 0-7.315 0-10.973-0.732-3.219-0.439-5.999-2.195-8.047-4.536-2.048-2.487-3.219-5.56-3.072-8.778-0.293-7.608 3.219-13.021 10.68-14.923 3.95-0.732 7.901-1.024 11.851-0.878 62.912 0 125.97-0.146 188.882 0zM299.051 318.738h-116.899c-3.365 0-6.73 0-9.949-0.293-3.365-0.146-6.584-1.756-8.925-4.097-2.341-2.487-3.658-5.706-3.658-9.217-0.585-8.047 3.072-13.607 10.973-15.509 3.658-0.732 7.315-1.024 10.973-0.878h233.798c3.95-0.146 7.901 0.146 11.851 1.17 3.365 0.732 6.291 2.78 8.193 5.56s2.78 6.291 2.195 9.656c0 3.365-1.463 6.584-3.658 9.071-2.341 2.487-5.56 3.95-8.925 4.243s-6.584 0.439-9.949 0.293h-115.875zM490.712 132.343c-24.726 0-288.078 3.072-312.804 3.072-11.558 0-18.727-5.852-18.288-15.070 0.293-9.217 7.023-14.777 17.849-14.777 49.305 0 337.529-3.219 386.688-3.072 10.827 0 17.703 5.852 17.849 14.777s-6.73 15.070-18.288 15.216c-24.287 0-48.574 0-72.861 0zM491.151 559.851h73.007c11.119 0 17.703 5.56 17.996 14.484 0.146 8.925-6.73 15.509-18.142 15.509h-385.957c-11.412 0-18.581-6.145-18.435-15.216 0-9.071 7.023-14.631 18.727-14.777 24.726 0 288.224 0 312.804 0v0zM489.981 169.359h74.031c11.266 0 17.703 5.56 18.142 14.338s-6.584 15.655-17.996 15.655c-49.305 0.146-337.529 3.219-386.688 2.926-4.097 0-9.656-1.17-11.851-3.804-3.365-4.243-5.121-9.51-4.974-14.923 1.024-7.901 7.608-11.119 15.509-11.119 24.872 0 288.663-3.072 313.681-3.072v0zM525.972 627.884c13.021 0 26.043 0 38.918 0 10.241 0 16.679 5.706 17.118 14.192 0.293 8.486-6.291 15.509-16.825 15.655-25.604 0.293-362.255 1.17-387.859 1.024-10.68 0-17.557-6.145-17.703-14.923 0-8.778 6.73-14.777 17.41-14.923 12.729 0 336.213-1.024 348.941-1.024zM0 159.995s1.317 0.439 1.609 0.878c4.536 7.169 10.973 9.803 18.874 6.876s9.656-9.217 9.51-16.972c0-45.062 0-89.979 0-135.041 0-31.602 17.996-49.891 49.452-49.891h584.202c31.017 0 49.159 17.849 49.159 49.013v779.229c0 30.724-17.849 48.427-48.281 48.574h-102.561v-38.771h10.68c20.629 0 41.405 0.293 62.034 0 21.361-0.293 35.699-14.923 35.845-36.138 0.146-30.285 0-60.717 0-91.003 0-10.973-5.706-17.557-14.631-17.703s-15.216 6.876-15.362 18.288c0 28.383-0.293 56.621 0 85.004 0 8.339-2.195 11.997-11.266 11.851-22.239-0.439-44.477-0.146-67.74-0.146-0.146-4.389-0.439-8.047-0.439-11.558-0.878-22.824-14.338-36.43-37.308-36.577-29.993-0.293-59.986 0-89.979 0h-207.17c-32.626 0-43.599 10.68-44.77 43.16 0 1.317-0.293 2.634-0.585 4.974-24.287 0-48.574 0.146-72.714-0.293-2.048 0-4.828-3.804-5.852-6.437-0.585-2.926-0.732-5.999-0.293-8.925v-707.246q0-15.655 15.070-15.655h507.977q14.777 0 14.777 14.777v555.087c-0.293 3.95 0 8.047 0.732 11.851 2.048 7.608 7.169 11.851 15.509 11.266 8.193-0.585 12.729-5.267 13.753-13.314 0.293-2.926 0.293-5.999 0.146-8.925v-559.184c0-29.115-12.729-41.99-41.99-41.99h-513.097c-30.285 0-42.868 12.875-42.868 43.307v712.221c0 30.432 12.875 43.307 43.014 43.307h65.838v38.771h-101.098c-32.48 0-50.183-17.557-50.183-49.891v-572.059c0.439-8.339-0.293-16.386-9.364-20.19-9.071-3.658-15.070 1.609-20.629 7.462v602.198s1.024 1.024 1.17 1.463c12.29 42.575 37.016 61.156 81.493 61.156 30.871 0 61.888-0.146 92.905 0.293 1.902 0 3.804 0.585 5.56 1.463s3.219 2.195 4.536 3.658c3.219 5.852 8.047 10.68 13.899 13.899 5.852 3.365 12.436 4.974 19.166 4.682h17.118c-0.878 18.288 2.341 34.089 15.070 45.355 8.339 7.462 19.459 11.997 29.408 17.849h182.005c20.483-6.291 36.577-17.703 42.722-39.356 1.756-7.901 3.072-15.947 3.95-23.994 6.291 0 12.875 0.293 19.459 0 5.706 0 11.266-1.609 16.24-4.682 4.828-2.926 8.778-7.169 11.412-12.29 3.072-5.56 6.584-7.169 12.582-7.023 31.31 0.293 62.619 0.439 93.929 0 9.949 0 19.751-1.17 29.408-3.95 32.773-10.241 51.061-38.479 51.061-77.25v-773.669c0-3.95 0-8.047-0.293-11.997-0.878-14.923-6.291-29.115-15.362-40.966s-21.653-20.483-35.845-25.165c-3.804-1.17-7.462-2.487-11.119-3.804h-616.39c-23.555 5.706-43.16 17.118-54.719 39.21-3.511 7.462-6.584 14.923-9.217 22.678v161.961zM372.058 755.756h148.062c7.315 0 10.973 1.463 10.973 9.803-0.293 30.578-0.293 61.302 0 92.027 0 6.73-2.341 9.656-9.364 9.364-8.925-0.439-17.996-0.293-26.92 0-11.851 0.439-16.825 5.56-17.264 17.41-0.293 7.023 0.293 14.045-0.293 20.922-1.17 15.216-10.827 24.726-26.043 24.726-53.402 0.293-106.658 0.293-160.059 0-15.070 0-24.872-10.388-25.311-25.311-0.146-6.291 0-12.729 0-19.020-0.293-13.314-5.56-18.727-19.020-18.874-8.047-0.146-15.947-0.439-23.994 0s-11.119-2.341-10.973-10.827c0.439-29.408 0.439-58.669 0-88.077-0.146-9.51 2.634-12.582 12.29-12.582 49.305 0.439 98.464 0 147.916 0zM888.081-64c-3.511 4.974-8.193 9.51-10.388 15.070-14.631 36.43-28.969 73.007-42.868 109.73-2.341 6.584-3.511 13.46-3.365 20.483-0.146 107.682-0.293 215.363 0 323.045 0 5.56 0 10.241-5.999 14.484-3.804 2.634-5.56 10.388-5.706 15.801-0.439 31.31-0.293 62.619-0.293 93.929v265.985c0 37.308 20.922 66.277 53.695 75.494 10.827 3.072 22.092 3.658 33.212 1.756 10.973-1.902 21.507-6.291 30.578-12.875s16.679-15.070 21.946-24.872c5.413-9.803 8.486-20.776 8.925-32.041 0.146-3.658 0.293-7.169 0.585-11.266 29.993-2.341 47.55-19.020 55.743-46.672v-264.083c-9.217-11.266-19.898-13.314-26.189-4.097-2.634 4.536-3.804 9.803-3.658 14.923-0.146 78.274-0.293 156.694-0.146 234.968 0 3.658 0 7.315-0.293 10.973-1.609 13.753-12.143 22.97-25.896 21.946v-11.851c0-103.585 0-207.316-0.146-310.902 0-5.852-1.609-13.899-5.413-16.972-5.706-4.536-6.584-9.071-6.291-15.070 0.293-7.608 0-15.362 0-22.97v-103c0-12.875-9.217-20.776-19.605-17.118-8.047 2.78-10.534 9.217-10.534 17.41 0 41.697 0 83.248 0 124.946v10.68h-64.082v-325.971h64.082v125.385c0 10.095 6.145 16.533 14.777 16.533s14.631-6.437 15.216-16.386v-135.919c0-5.267-1.024-10.534-2.926-15.509-14.338-37.308-28.676-74.47-43.599-111.486-2.195-5.267-7.315-9.803-11.266-14.631h-9.949zM937.972 444.562v350.404c0 21.653-10.68 38.040-28.676 44.916-29.847 11.266-59.693-10.241-59.839-43.892-0.146-114.265-0.146-228.677 0-342.943 0.146-2.78 0.439-5.706 0.878-8.486h87.491zM868.476 56.849c8.339-21.361 16.24-41.697 25.165-64.375 8.925 22.824 16.825 43.307 25.165 64.375h-50.183zM370.156 433.004h-186.687c-3.658 0-7.315 0-10.973 0.585-8.486 1.317-13.021 6.437-12.875 15.070 0.146 8.193 4.828 12.875 12.729 14.045 3.658 0.439 7.315 0.585 10.973 0.439h374.691c4.243 0.146 8.632 0 12.875-0.878 7.462-1.756 12.29-7.462 10.68-14.484-1.17-5.121-6.291-10.241-10.827-13.46-3.072-2.195-8.339-1.17-12.729-1.17-62.766 0-125.385 0-188.004 0zM371.034 360.874h-189.028c-3.95-0.146-8.047 0-11.851 0.878-7.462 1.902-10.973 7.315-10.68 14.923 0 3.219 1.024 6.291 3.072 8.778s4.974 4.097 8.047 4.536c3.658 0.585 7.315 0.878 10.973 0.732h378.056c3.072 0 5.999 0 8.925-0.293 8.047-1.024 12.729-5.999 13.168-13.899 0.293-8.486-4.389-13.753-12.729-15.216-3.658-0.439-7.315-0.585-10.973-0.439-62.327 0-124.653 0-186.98 0zM299.051 318.738h115.875c3.365 0 6.73 0 9.949-0.293 3.365-0.293 6.584-1.756 8.925-4.243s3.658-5.706 3.658-9.071c0.439-3.365-0.293-6.73-2.195-9.656-1.902-2.78-4.828-4.828-8.193-5.56-3.804-0.878-7.901-1.317-11.851-1.17h-233.652c-3.658-0.146-7.315 0-10.973 0.878-8.047 1.902-11.558 7.462-10.973 15.509 0 3.365 1.317 6.73 3.658 9.217s5.56 3.95 8.925 4.097c3.365 0.293 6.584 0.439 9.949 0.293h116.899zM490.712 132.197h73.007c11.412 0 18.435-5.999 18.288-15.216s-6.876-14.777-17.849-14.777c-49.305 0-337.529 2.926-386.688 3.072-10.68 0-17.703 5.999-17.849 14.777s6.73 15.070 18.288 15.070c24.726 0 288.078-3.072 312.657-3.072zM491.151 559.705h-312.95c-11.705 0-18.727 5.56-18.727 14.777s7.023 15.216 18.435 15.216h385.811c11.412 0 18.435-6.145 18.142-15.509-0.146-9.217-6.876-14.338-17.996-14.484-24.287 0-48.72 0-73.007 0zM489.835 169.213c-25.018 0-288.809 3.072-313.828 3.072-8.047 0-14.484 3.365-15.509 11.119-0.293 5.413 1.463 10.68 4.828 14.923 2.195 2.634 7.754 3.804 11.851 3.804 49.305 0.293 337.529-2.634 386.688-2.926 11.412 0 18.288-6.584 17.996-15.655-0.439-9.217-6.876-14.192-18.142-14.338-24.726-0.146-49.305 0-74.031 0h0.146zM525.972 627.738c-12.582 0-336.213 0.878-348.941 1.024-10.68 0-17.557 5.999-17.41 14.923 0 8.925 6.876 14.923 17.703 14.923 25.604 0.146 362.255-0.878 387.859-1.024 10.534 0 17.264-6.73 16.825-15.655s-6.73-14.045-17.118-14.192c-13.021-0.146-25.896 0-38.918 0zM371.472 870.021c-13.314 0-26.628 0-39.942 0-10.241 0-16.679 5.706-17.118 14.338s6.584 15.509 16.972 15.509c26.628 0.146 53.402 0.146 80.030 0 10.68 0 17.118-6.291 16.825-15.509-0.293-8.778-6.437-14.338-16.825-14.338-13.314 0-26.628 0-39.942 0z" />
<glyph unicode="&#xe915;" glyph-name="awaiting-approvals" d="M1024 649.050c-7.373 19.736-21.67 27.339-42.748 26.491-27.307-1.033-54.669-0.238-82.001-0.265-27.785 0-40.077-12.16-40.691-39.738 0-2.649-0.294-5.166-0.508-8.716-36.975 0-74.594-6.464-106.125 20.16-1.553 1.258-3.234 2.351-5.022 3.258-7.667 3.974-16.030 2.172-20.198-4.557-4.514-7.285-3.473-14.385 3.153-19.471 20.331-15.55 42.321-27.816 68.745-28.955 16.030-0.689 32.064-0.397 48.094-0.53h11.273v-281.26c-31.497 0-63.078 1.801-91.507-12.587-9.647 14.336-19.934 27.58-27.866 42.257-18.705 34.436-69.47 43.046-96.482 1.907-2.671 1.536-5.53 3.127-8.337 4.663-7.317 4.019-15.484 6.281-23.842 6.601-8.363 0.32-16.683-1.31-24.29-4.762s-14.293-8.627-19.516-15.108c-5.222-6.481-8.836-14.084-10.556-22.204-1.178-4.898-4.002-9.254-8.013-12.348-51.755-35.575-103.748-70.758-155.715-105.963-2.417-1.771-4.983-3.328-7.668-4.663-5.052-2.283-10.757-2.709-16.096-1.203-5.34 1.502-9.966 4.843-13.053 9.417-2.866 4.501-4.109 9.83-3.527 15.125 0.582 5.291 2.956 10.231 6.733 14.012 2.73 2.419 5.652 4.617 8.737 6.571l152.455 103.714c3.14 1.869 6.084 4.045 8.789 6.494 2.65 2.364 4.297 5.636 4.604 9.156 0.307 3.524-0.747 7.031-2.948 9.809-1.771 2.867-4.557 4.979-7.812 5.914-3.26 0.939-6.75 0.631-9.792-0.853-3.017-1.391-5.871-3.098-8.525-5.086l-171.45-116.565c-2.672-1.877-5.344-3.84-8.336-5.457-11.596-6.464-24.634-3.575-31.661 6.916-1.71 2.462-2.907 5.239-3.521 8.171-0.614 2.927-0.634 5.948-0.056 8.883s1.739 5.726 3.418 8.213c1.679 2.483 3.84 4.612 6.359 6.259 17.073 12.105 34.546 23.654 51.833 35.418l126.804 86.468c2.253 1.408 4.412 2.957 6.464 4.638 6.306 5.615 7.535 12.292 3.102 19.524-4.117 6.729-12.587 8.529-20.228 4.425-2.871-1.621-5.653-3.388-8.333-5.299-57.98-39.403-115.967-78.78-173.964-118.127-4.524-3.315-9.635-5.76-15.069-7.206-5.137-0.947-10.447-0.081-15.009 2.441-4.562 2.526-8.090 6.554-9.972 11.388-2.145 4.915-2.452 10.428-0.866 15.543 1.587 5.12 4.963 9.51 9.523 12.382 23.432 16.341 47.131 32.316 70.723 48.427 21.989 14.938 43.791 30.118 66.020 44.689 31.738 20.582 56.791 49.83 72.138 84.215 0.802 1.749 1.792 3.447 3.102 5.961 15.603-7.945 30.886-15.893 46.114-23.842 18.3-9.429 36.309-19.494 54.933-28.292 35.695-16.794 70.562-14.438 103.398 7.39 27.52 18.308 28.267 51.634 1.762 71.397-41.306 30.73-82.957 60.931-124.425 91.529-2.671 1.934-5.346 4.026-8.713 6.729 43.981 24.769 88.521 28.16 134.66 9.060 2.671-1.166 5.346-2.649 8.017-3.815 9.297-4 17.391-1.695 21.372 6.014 3.985 7.709 1.178 15.895-7.881 20.557-19.17 9.978-40.111 16.16-61.666 18.2-40.478 4.22-81.178-5.62-115.153-27.843-1.574-0.789-3.311-1.213-5.073-1.241s-3.507 0.342-5.107 1.082c-68.13 40.93-134.927 38.969-200.761-4.663-14.392-9.537-28.766-19.109-43.123-28.717-13.501-9.341-29.546-14.394-46.009-14.491-16.886 0-33.798 0-51.78 0 0 5.616 0.214 10.146 0 14.676-1.122 20.451-14.802 33.777-35.375 33.909-31.661 0.185-63.322 0.238-94.983 0-20.947-0.159-34.921-14.226-34.921-35.181-0.107-123.292-0.107-246.564 0-369.824 0-21.193 14.348-35.418 35.829-35.575 30.672-0.213 61.452-0.132 91.991 0 23.271 0 37.058 13.854 37.405 37.086 0 4.241 0 8.478 0 13.431 30.004 1.165 58.967 2.517 85.498-12.237 1.725-0.96 3.229-2.261 4.421-3.827 1.191-1.562 2.042-3.354 2.499-5.261 3.126-33.327 23.726-52.454 57.844-52.983 1.577 0 3.18-0.265 4.623-0.371 7.775-40.823 38.688-53.751 67.891-48.162 16.993-47.842 43.579-58.044 90.683-34.782 29.871-34.786 83.465-25.485 96.747 21.803 38.686 2.172 52.501 11.575 63.215 43.55 32.38-2.462 54.076 11.443 62.464 39.74 14.775 4.343 27.682 7.654 40.081 12.053 4.399 1.754 8.132 4.83 10.684 8.794 14.805 23.287 38.558 28.877 63.403 31.369 13.76 1.404 27.814 0.265 43.098 0.265 0-4.983 0-9.485 0-13.99 0.589-22.622 14.426-36.373 37.111-36.506 28.002-0.132 56.107 0.742 83.977-0.29 21.107-0.768 36.122 6.306 44.297 26.039v138.82c-5.504 6.17-11.648 11.204-20.599 7.654s-9.536-11.55-9.485-19.87c0-37.35-0.158-74.705 0.213-112.034 0-8.341-2.671-10.807-10.901-10.594-26.982 0.397-53.995 0-81.007 0.158-13.521 0-13.547 0-13.547 13.828v319.145c0 11.895 0.482 23.843-0.162 35.684-0.508 9.193 2.031 12.849 12.105 12.61 27.332-0.663 54.665-0.503 81.997 0 8.499 0.132 11.972-2.013 11.541-11.047-0.691-14.517-0.183-29.14-0.183-43.605 0-44.294 0-88.587 0-132.884 0-7.945 0.879-15.578 9.429-18.914s14.908 0.29 19.853 7.155c0 0.209 0.614 0.183 0.934 0.265v202.262zM165.438 596.835c17.314 0 32.917 0.159 48.521 0 24.158-0.299 47.799 6.949 67.57 20.716 16.512 11.153 32.97 22.412 49.803 33.062 51.112 32.187 113.153 31.472 162.42-3.656 53.248-37.989 105.643-77.197 158.306-116.005 11.034-8.137 10.688-16.879-0.909-24.294-23.859-15.258-48.789-16.478-73.958-3.682-36.442 18.543-72.593 37.565-108.877 56.347-15.761 8.133-22.519 5.298-28.561-11.232-19.984-54.203-56.107-91.395-114.379-104.14-12.264-2.65-25.088-2.65-37.646-4.079-9.939-1.058-15.577-6.357-15.71-14.677-0.134-8.316 5.504-13.854 15.229-15.044 1.977-0.239 3.928-0.768 7.134-1.378-20.279-13.803-39.222-26.65-58.112-39.74-16.031-10.94-23.699-26.304-24.047-45.406 0-2.807 0-5.589 0-7.949h-46.757v12.531c0 48.252 0 96.491 0 144.725 0 15.71-5.13 23.258-15.523 22.993-9.966-0.265-14.534-7.364-14.534-22.754 0-65.754 0-131.507 0.16-197.257 0-8.956-2.432-12.109-11.89-11.921-27.626 0.61-55.306 0.503-82.96 0-8.443 0-10.954 2.65-10.687 10.833 0.454 20.821 0.16 41.647 0.16 62.443 0 98.812 0 197.6-0.187 296.387 0 9.086 2.431 12.027 11.729 11.868 28.001-0.556 56.108-0.398 83.975 0 7.455 0 10.046-2.438 9.886-9.696-0.347-16.186-0.134-32.373 0-48.559 0-15.524-0.187-31.075 0.214-46.599-0.068-1.908 0.252-3.81 0.941-5.592 0.689-1.781 1.732-3.411 3.069-4.785s2.938-2.466 4.71-3.217c1.772-0.747 3.677-1.131 5.602-1.135 8.015-0.183 14.161 5.299 15.283 13.961 0.303 3.621 0.393 7.257 0.267 10.888l-0.241 46.042zM648.235 221.21c-5.342 2.914-12.476 4.557-15.761 9.007-15.71 21.193-30.835 42.944-45.154 65.143-6.494 10.095-2.031 23.023 8.013 29.461 9.353 6.037 23.168 4.979 29.82-4.109 15.441-21.060 30.643-42.385 44.51-64.427 9.195-14.81-3.098-33.698-21.427-35.076zM556.966 270.485c5.931-3.657 13.359-6.093 17.446-11.204 11.221-14.255 21.376-29.406 31.181-44.642 3.162-4.928 4.284-10.88 3.127-16.61-1.152-5.73-4.497-10.799-9.327-14.144-2.325-1.766-4.983-3.059-7.817-3.806s-5.786-0.93-8.691-0.542c-2.901 0.388-5.7 1.344-8.235 2.807-2.53 1.463-4.745 3.409-6.515 5.726-11.332 14.993-22.285 30.383-32.064 46.413-9.165 15.074 2.193 33.749 20.894 36.002zM493.431 227.145c5.585-3.098 12.877-4.902 16.457-9.51 11.759-15.155 22.686-31.023 32.943-47.206 2.923-4.915 3.814-10.756 2.487-16.307-1.323-5.551-4.762-10.377-9.591-13.47-9.515-6.49-23.514-5.299-30.647 4.105-11.721 15.215-22.622 31.031-32.649 47.394-8.819 14.703 2.859 32.956 21.001 34.995zM711.987 264.235c-5.346 2.833-12.373 4.42-15.872 8.768-9.941 12.395-19.046 25.434-27.251 39.023-5.905 9.801-1.579 22.464 7.881 28.821s22.925 5.299 29.922-3.601c9.719-12.164 18.56-24.99 26.453-38.387 8.55-14.891-3.021-32.772-21.133-34.624zM437.99 192.704l22.686-39.181c-8.926-8.448-16.943-10.594-26.534-6.938-4.134 1.387-7.751 3.981-10.377 7.441s-4.14 7.625-4.343 11.947c-1.149 14.413 8.308 21.303 18.569 26.731zM956.13 325.538c0 4.267 0.32 8.585 0 12.796-0.751 8.401-5.534 13.248-14.080 13.67-8.55 0.427-14.323-4.369-15.232-12.425-0.99-9.468-0.99-19.008 0-28.476 0.802-8.107 6.494-12.826 14.989-12.902 8.017 0 13.867 5.986 14.43 14.545 0.265 4.237 0 8.529 0 12.791h-0.107zM67.832 324.668c0-3.947-0.214-7.949 0-11.819 0.561-8.58 6.439-14.673 14.321-14.647 8.523 0 14.241 4.689 15.095 12.77 1.002 9.472 1.002 19.029 0 28.501-0.855 7.949-6.466 12.745-15.149 12.587-8.202-0.188-13.706-5.751-14.24-14.571-0.374-4.373-0.027-8.559-0.027-12.821z" />
<glyph unicode="&#xe916;" glyph-name="graph" d="M379.638 359.714c39.345-21.918 80.258-45.030 121.551-68.71 3.895-2.223 7.441-3.337 10.987-3.337 3.541 0 6.886 1.054 10.547 3.166 40.853 23.394 82.031 46.652 122.334 69.137 7.471 4.16 10.607 9.719 10.492 18.551-0.235 16.418-0.175 33.088-0.145 49.246 0 6.387 0.030 12.77 0.030 19.153s0 12.996 0 19.494c-0.030 16.614-0.060 33.801 0.115 50.697 0.085 8.294-3.081 13.769-10.257 17.786-39.057 21.83-79.36 44.573-123.179 69.566-6.916 3.933-13.077 3.962-19.904 0.029-42.338-24.195-83.777-47.593-123.18-69.538-7.439-4.134-10.723-9.834-10.694-18.465 0.204-50.987 0.204-96.043 0-137.737-0.058-8.892 3.342-14.592 11.304-19.012v-0.026zM607.398 515.947c-9.327-5.303-18.598-10.547-27.87-15.791l-14.093-7.979c-15.923-9.033-32.397-18.381-48.73-27.273-2.236-1.229-6.161-1.655-7.642-0.828-28.186 15.616-55.676 31.177-84.764 47.68l-17.435 9.89c0.697 0.538 1.366 1.024 2.034 1.395l10.374 5.871c28.855 16.358 58.7 33.286 88.221 49.616 2.15 1.169 6.161 1.539 7.701 0.713 29.726-16.415 59.802-33.458 88.862-49.902l13.453-7.607-10.172-5.76 0.060-0.026zM630.413 409.728c0.055-8.179 0.085-16.614-0.205-24.909-0.085-2.193-1.455-5.013-2.441-5.585-30.771-17.668-62.242-35.337-92.698-52.437l-10.462-5.871v36.224c-0.026 25.476-0.055 51.81 0.235 77.717 0.030 2.59 1.916 6.409 3.661 7.407 27.925 16.188 56.546 32.32 84.211 47.906l17.668 9.975v-81.28c0-3.046 0-6.097 0.030-9.148zM499.243 436.203c0.405-31.061 0.35-62.669 0.32-93.248v-21.030c0-0.316-0.060-0.657-0.090-1.054l-13.918 7.863c-30.741 17.387-59.802 33.801-89.209 50.56-1.104 0.627-2.208 2.278-2.237 2.876-0.175 34.001-0.175 67.345-0.175 102.656v15.159c1.424-0.657 2.615-1.254 3.748-1.882l17.232-9.715c25.862-14.566 52.627-29.641 78.747-44.774 2.675-1.54 5.521-5.359 5.551-7.411h0.030zM601.152 72.93c0 3.789 0.030 7.582 0.030 11.371s0 7.582-0.030 11.371c-0.026 8.947-0.085 18.21 0.119 27.273 0.175 8.038-2.906 13.538-9.677 17.301-8.282 4.617-16.508 9.289-24.759 13.965-15.083 8.55-30.656 17.382-46.204 25.707-4.621 2.479-12.437 2.449-17.084-0.030-15.433-8.265-30.891-17.041-45.854-25.536-8.371-4.732-16.708-9.489-25.109-14.165-6.653-3.703-9.704-8.892-9.646-16.273 0.203-26.786 0.203-53.436 0-79.198-0.058-7.552 2.877-12.565 9.561-16.299 8.397-4.676 16.738-9.408 25.105-14.135 14.703-8.354 29.901-16.96 45.099-25.024 2.586-1.37 6.076-2.052 9.532-2.052 3.46 0 6.686 0.657 9.126 1.967 15.428 8.149 30.857 16.93 45.764 25.391 8.137 4.617 16.273 9.233 24.439 13.794 6.801 3.793 9.882 9.263 9.707 17.271-0.205 9.062-0.175 18.325-0.119 27.273v0.030zM575.437 49.306c-0.030-0.486-0.725-1.57-1.19-1.826-13.747-7.893-27.605-15.701-42.308-23.996l-7.351-4.16v9.033c0 16.102 0 31.322 0.115 46.426 0 1.084 0.666 2.564 0.986 2.85 13.948 8.064 27.955 15.957 42.803 24.311l7.061 3.989v-7.808c0-16.9 0-32.862-0.115-48.819zM499.247 27.674c0.085-2.679 0.175-5.444 0.23-8.235l-8.137 4.587c-14.208 8.009-27.605 15.561-40.853 23.283-0.7 0.401-1.745 2.223-1.775 3.337-0.175 15.044-0.175 30.123-0.145 46.080v9.207c2.355-1.399 4.651-2.765 6.886-4.134 7.936-4.817 15.433-9.374 23.654-12.54 17.143-6.609 23.364-17.242 20.749-35.567-1.19-8.38-0.93-16.926-0.61-25.988v-0.030zM562.999 127.59l-7.177-4.045c-14.793-8.35-28.74-16.247-42.773-23.97-0.465-0.171-2.065 0.030-3.051 0.572-13.572 7.522-27.055 15.189-41.353 23.283l-7.407 4.19 8.017 4.557c14.093 8.009 27.375 15.561 40.768 22.942 0.99 0.542 3.081 0.572 3.78 0.201 13.628-7.492 27.11-15.159 41.378-23.283l7.787-4.416 0.030-0.030zM422.976 770.897c-0.058-7.353 2.964-12.34 9.792-16.159 8.602-4.788 17.173-9.633 25.745-14.506 14.502-8.236 29.466-16.729 44.433-24.709 2.615-1.396 6.101-2.109 9.502-2.109 3.081 0 6.071 0.57 8.252 1.738 15.983 8.493 31.966 17.584 47.424 26.333 7.846 4.446 15.689 8.892 23.565 13.309 6.656 3.734 9.707 8.949 9.562 16.416-0.175 9.348-0.145 18.866-0.115 28.072 0 3.847 0.026 7.666 0.026 11.514s0 7.524-0.055 11.257c-0.060 8.692-0.115 17.669 0.145 26.476 0.26 8.692-3.021 14.449-10.637 18.639-20.719 11.428-42.423 23.683-68.288 38.616-7.087 4.104-13.538 4.018-20.864-0.228-20.719-11.998-43.063-24.652-68.288-38.616-7.176-3.961-10.314-9.177-10.256-16.871 0.233-25.592 0.233-52.239 0-79.199l0.058 0.028zM499.546 755.793v-9.832c-1.54 0.741-2.906 1.396-4.186 2.138l-7.817 4.389c-11.477 6.441-23.334 13.11-34.842 19.921-1.946 1.168-3.836 3.676-3.866 4.788-0.32 14.734-0.29 29.468-0.26 45.085 0 3.334 0 6.697 0 10.117l8.516-4.788c13.973-7.894 27.196-15.333 40.213-22.97 0.845-0.484 2.005-2.622 2.035-4.075 0.205-14.649 0.175-29.268 0.175-44.744l0.030-0.029zM562.313 853.602c-3.14-1.824-5.961-3.448-8.806-5.073l-8.397-4.788c-9.446-5.386-19.209-10.944-28.915-16.216-2.15-1.168-4.821-1.624-5.461-1.311-13.483 7.296-26.765 14.848-40.798 22.828l-8.631 4.902 8.687 4.959c13.602 7.752 26.445 15.048 39.433 22.144 1.28 0.713 4.126 0.769 5.321 0.114 12.988-7.068 25.83-14.42 39.458-22.172l8.777-5.016-0.666-0.371zM524.766 801.648c0 0.798 0.905 2.28 1.455 2.593 13.598 7.866 27.285 15.589 41.788 23.768l7.612 4.303v-8.835c0-16.159 0-31.434-0.115-46.653 0-1.083-0.64-2.537-0.99-2.822-13.888-8.037-27.866-15.902-42.658-24.253l-7.236-4.076v8.664c0 16.387 0 31.833 0.119 47.28l0.026 0.029zM921.472 254.468c0 3.844 0.030 7.693 0.030 11.541 0 3.844 0 7.667-0.030 11.486-0.030 9.203-0.090 18.722 0.115 28.070 0.145 7.497-2.846 12.71-9.442 16.388-21.679 12.023-44.518 24.964-69.858 39.526-6.596 3.789-12.493 3.763-19.149-0.085-22.635-13.082-45.884-26.189-69.099-38.989-7.181-3.959-10.347-9.148-10.287-16.811 0.23-25.079 0.23-50.987 0-79.202-0.060-7.607 2.846-12.651 9.472-16.329 21.705-12.028 44.544-24.964 69.884-39.501 3.285-1.882 6.451-2.82 9.617-2.82 3.17 0 6.336 0.939 9.621 2.82 27.081 15.505 49.31 28.045 69.884 39.501 6.566 3.648 9.532 8.862 9.357 16.444-0.23 9.318-0.175 18.807-0.145 28.015l0.030-0.055zM896.337 231.838c0-0.828-0.875-2.308-1.425-2.62-13.628-7.898-27.345-15.646-41.873-23.855l-7.467-4.22v6.869c0 17.387 0 33.856 0.085 50.274 0.060 0.311 0.555 0.994 0.845 1.165 14.293 8.179 28.621 16.247 43.819 24.798l6.101 3.447v-8.636c0-16.358 0-31.804-0.115-47.223h0.030zM883.639 309.214l-7.701-4.331c-14.443-8.179-28.1-15.906-41.933-23.484-0.55-0.256-2.526-0.085-3.661 0.542-13.278 7.351-26.415 14.818-40.303 22.711l-8.137 4.617c3.11 1.741 6.217 3.422 9.267 5.073 10.492 5.7 20.373 11.115 29.875 17.442 8.627 5.756 14.818 5.73 23.65-0.115 9.331-6.182 19.123-11.541 29.466-17.212 3.11-1.711 6.276-3.447 9.476-5.214v-0.030zM769.178 277.606c-0.090 3.307-0.175 6.699-0.205 10.176l7.411-4.16c14.788-8.35 28.766-16.218 42.539-24.196 0.38-0.341 0.93-1.796 0.93-2.965 0.119-15.189 0.119-30.379 0.119-46.426v-8.747c-2.79 1.621-5.551 3.217-8.256 4.817-9.297 5.47-18.074 10.628-27.486 14.818-12.757 5.7-17.148 12.996-15.663 26.018 1.131 9.946 0.87 20.006 0.61 30.665zM270.516 322.206c-24.613 13.623-47.191 26.394-69.072 39.044-6.858 3.964-12.989 3.934-19.934-0.111-22.52-13.056-45.767-26.193-69.101-38.989-6.916-3.789-9.967-9.062-9.909-17.041 0.175-27.814 0.175-53.436 0-78.289-0.058-7.923 3.022-13.167 9.967-17.011 21.155-11.657 43.762-24.427 69.072-39.044 3.516-2.022 6.858-3.051 10.141-3.051 3.051 0 6.015 0.858 9.066 2.594 23.712 13.538 47.511 26.987 70.699 39.927 6.248 3.503 9.095 8.491 8.921 15.731-0.204 9.318-0.174 18.837-0.116 28.045 0 3.844 0.029 7.663 0.029 11.511s0 7.782-0.058 11.686c-0.058 9.148-0.116 18.581 0.145 27.87 0.233 7.808-2.906 13.252-9.88 17.101l0.029 0.026zM255.057 230.985c-0.058-0.457-0.784-1.485-1.336-1.796-13.832-7.953-27.751-15.791-42.484-24.111l-6.858-3.874v7.863c0 16.956 0 32.973 0.116 48.934 0.058 0.427 0.785 1.481 1.337 1.792 13.744 7.868 27.547 15.646 42.193 23.885l7.148 4.019v-7.782c0-16.926 0-32.943-0.116-48.905v-0.026zM242.359 309.214l-8.572-4.877c-13.803-7.834-26.821-15.245-40.013-22.426-0.959-0.512-3.749-0.401-5.26 0.427-12.873 7.040-25.6 14.276-39.084 21.943l-8.776 4.988c2.499 1.34 4.969 2.65 7.381 3.904 8.776 4.587 17.057 8.947 24.583 14.562 13.541 10.091 24.467 10.121 37.718 0.115 7.352-5.555 15.546-9.89 24.235-14.477 2.557-1.34 5.143-2.709 7.788-4.16zM178.576 211.691c0.058-3.452 0.145-6.985 0.174-10.577l-8.194 4.621c-14.065 7.949-27.344 15.445-40.508 23.083-1.075 0.627-2.15 2.364-2.15 3.021-0.204 15.305-0.175 30.635-0.175 46.852v9.007c3.080-1.766 6.073-3.537 9.037-5.244 9.909-5.786 19.237-11.26 29.146-15.846 10.577-4.902 14.151-10.859 13.163-21.943-0.959-10.803-0.755-21.577-0.523-33.003l0.029 0.030zM280.269 629.145c0 3.876 0 7.752-0.029 11.628-0.058 9.177-0.087 18.639 0.116 27.929 0.174 7.552-2.79 12.768-9.386 16.444-24.002 13.338-47.511 26.647-69.885 39.528-6.654 3.819-12.553 3.847-19.12 0.029-9.095-5.244-18.249-10.402-27.402-15.561-13.948-7.866-28.361-15.988-42.338-24.338-4.911-2.935-9.154-9.775-9.299-14.933-0.698-25.963-0.698-52.524-0.058-81.166 0.116-5.244 3.981-11.913 8.398-14.534 23.101-13.737 47.22-27.331 71.687-40.383 2.383-1.281 5.609-1.938 8.747-1.938s5.986 0.597 8.195 1.767c24.060 12.881 48.179 26.504 71.629 40.469 4.271 2.536 8.049 9.006 8.427 14.392 0.64 9.804 0.523 19.779 0.436 29.411-0.058 3.762-0.087 7.524-0.087 11.286l-0.029-0.029zM203.933 597.511c-2.906 19.237 3.662 30.437 21.968 37.419 7.846 2.993 15.052 7.353 22.666 11.97 2.179 1.311 4.387 2.65 6.654 3.99v-9.69c0-15.561 0.058-30.295-0.145-44.943 0-1.454-1.191-3.648-2.034-4.132-13.076-7.666-26.327-15.133-40.362-23.027l-8.34-4.703c0.058 2.537 0.145 5.044 0.233 7.524 0.32 8.892 0.61 17.271-0.64 25.564v0.029zM178.74 573.401v-8.977l-7.439 4.189c-14.587 8.236-28.361 16.017-42.164 24.025-0.494 0.285-1.308 1.738-1.308 2.565-0.145 15.475-0.145 30.921-0.116 47.28v8.635l8.311-4.674c14.093-7.923 27.373-15.418 40.565-23.056 0.93-0.541 1.976-2.308 2.005-3.106 0.204-15.333 0.175-30.636 0.175-46.853l-0.029-0.028zM242.435 672.549l-7.032-3.99c-14.587-8.265-28.361-16.045-42.396-23.797-0.669-0.37-2.383-0.342-2.935-0.057-14.064 7.78-27.867 15.617-42.483 23.911l-6.974 3.961 7.584 4.303c14.268 8.065 27.751 15.703 41.437 23.227 0.843 0.456 2.906 0.484 3.69 0.057 13.57-7.467 26.937-15.047 41.088-23.084l7.991-4.532h0.029zM752.448 574.196c24.030-14.192 48.119-27.786 71.659-40.383 2.47-1.311 5.781-1.994 8.977-1.994 2.965 0 5.841 0.567 7.962 1.709 15.778 8.464 31.616 17.442 46.903 26.134 8.252 4.702 16.533 9.376 24.815 14.022 6.161 3.448 8.947 8.464 8.802 15.817-0.175 9.376-0.145 18.895-0.115 28.128 0 3.819 0.030 7.61 0.030 11.428s0 7.752-0.030 11.628c-0.030 9.177-0.085 18.639 0.115 27.929 0.175 7.666-2.761 12.91-9.267 16.529-8.546 4.759-17.088 9.576-25.6 14.392-14.793 8.379-30.106 17.042-45.389 25.222-4.651 2.508-12.412 2.565-16.943 0.143-24.119-12.881-48.235-26.476-71.659-40.411-4.501-2.679-8.427-9.319-8.542-14.478-0.61-26.419-0.61-54.034 0-82.049 0.115-4.873 3.866-11.143 8.222-13.737l0.060-0.029zM845.316 615.035c-0.26 5.529 1.425 8.236 6.976 11.2 11.247 5.985 22.289 12.283 33.971 18.952 3.371 1.909 6.767 3.847 10.257 5.814v-10.003c0.026-15.418 0.055-30.010-0.175-44.544 0-1.51-1.425-4.018-2.615-4.731-12.727-7.467-25.66-14.705-39.317-22.372l-8.862-4.959v6.384c0 4.275 0.030 8.578 0.085 12.853 0.119 10.288 0.205 20.919-0.29 31.406h-0.030zM818.731 621.248c3.456-5.757 2.671-14.762 1.916-23.483-0.346-4.018-0.725-8.179-0.695-12.083 0.055-5.472 0.030-10.915 0-16.986v-4.246l-8.282 4.674c-14.182 7.98-27.55 15.532-40.858 23.312-0.64 0.37-1.741 2.537-1.771 4.161-0.205 14.648-0.175 29.326-0.145 44.858v9.69l3.341-1.881c5.261-2.935 10.172-5.7 15.053-8.521 3.456-2.024 7.322-3.819 11.012-5.557 8.222-3.847 16.738-7.837 20.369-13.908l0.060-0.029zM781.943 672.603c3.051 1.739 6.071 3.448 9.067 5.158 13.278 7.552 25.83 14.677 38.703 21.631 1.481 0.798 4.681 0.826 6.101 0.057 12.847-6.954 25.455-14.135 38.822-21.773 2.935-1.681 5.901-3.363 8.922-5.073-2.731-1.51-5.461-2.964-8.137-4.417-9.387-5.073-18.249-9.861-26.53-15.732-11.738-8.322-20.774-8.322-32.256 0-7.872 5.728-16.619 10.402-25.105 14.934-3.226 1.738-6.481 3.477-9.617 5.215h0.030zM722.679 211.981c-3.255 1.395-7.262 1.109-11.302-0.798-1.425-0.683-2.82-1.455-4.215-2.223l-8.397-4.732c-24.73-13.965-49.455-27.959-74.155-41.95-0.38-0.23-0.815-0.457-1.25-0.657-2.21-1.139-4.71-2.449-5.756-4.873-1.161-2.705-2.876-7.863-1.365-11.942 1.015-2.735 3.605-4.531 5.871-6.127 0.841-0.567 1.685-1.169 2.411-1.796l1.425-1.225 1.715 0.798c1.421 0.657 2.701 1.225 3.891 1.766 2.385 1.058 4.446 1.967 6.451 3.106 21.214 11.887 42.398 23.855 63.582 35.827 2.005 1.139 4.066 2.223 6.131 3.302 5.521 2.935 11.217 5.956 16.154 9.92 3.691 2.935 5.871 10.432 4.446 15.104-0.956 3.076-2.906 5.359-5.666 6.528l0.030-0.030zM301.574 683.809c0.756-0.485 1.482-0.969 2.092-1.482l1.279-1.054 1.569 0.541c1.133 0.399 2.121 0.684 2.993 0.969 1.772 0.541 3.313 0.998 4.765 1.824 25.92 14.563 56.664 31.862 87.989 49.702 3.574 2.023 5.928 4.816 6.771 8.065 0.814 3.106 0.203 6.469-1.773 9.69-3.69 5.985-10.199 7.381-17.464 3.791-0.872-0.428-1.686-0.912-2.528-1.368l-13.657-7.724c-23.45-13.28-46.871-26.533-70.321-39.842-0.349-0.199-0.697-0.37-1.075-0.57-1.918-0.998-4.33-2.252-5.201-4.56-1.453-3.847-2.761-8.265-1.395-11.884 1.046-2.793 3.662-4.532 5.957-6.042v-0.057zM400.942 161.557l-1.511 0.853c-27.373 15.39-55.647 31.322-83.398 47.083-3.342 1.907-13.513 7.693-19.876-2.709-1.976-3.247-2.615-6.383-1.83-9.318 1.249-4.702 5.899-7.753 9.299-9.66 17.667-9.89 35.306-19.866 52.915-29.841 10.141-5.726 20.283-11.456 30.424-17.186 1.627-0.909 3.255-1.681 5.347-2.675 1.075-0.516 2.266-1.058 3.632-1.741l1.772-0.853 1.482 1.31c0.785 0.713 1.685 1.37 2.615 2.052 2.354 1.766 5.056 3.763 6.364 6.639 1.627 3.563 2.848 10.377-7.235 16.017v0.030zM623.33 733.529c27.341-15.418 54.656-30.922 81.971-46.425l2.82-1.596c3.746-2.109 7.091-3.192 10.022-3.192 4.070 0 7.381 2.052 9.852 6.127 1.946 3.22 2.556 6.327 1.801 9.205-1.19 4.531-5.461 7.438-9.502 9.718l-20.864 11.799c-20.804 11.742-41.609 23.512-62.417 35.225-1.856 1.054-3.836 1.824-6.131 2.707-1.161 0.456-2.441 0.94-3.861 1.539l-1.83 0.769-1.395-1.425c-0.73-0.741-1.54-1.454-2.385-2.138-2.18-1.881-4.416-3.791-5.577-6.526-2.615-6.156-0.090-11.456 7.522-15.76l-0.026-0.028zM713.033 575.389c-13.367-6.669-26.5-14.050-38.997-21.916-3.776-2.394-5.026-9.576-4.006-13.28 0.811-2.907 3.341-4.845 6.071-6.924 1.161-0.883 2.355-1.826 3.516-2.85l1.626-1.485 1.89 1.169c3.516 2.167 7.002 4.276 10.432 6.356 11.622 7.068 22.609 13.737 33.361 21.004 1.101 0.741 1.771 1.995 2.061 3.848 0.465 3.163-0.26 8.065-2.266 10.487-2.615 3.163-9.852 5.529-13.687 3.648v-0.057zM721.515 342.733c-10.522 5.986-21.069 11.968-31.646 17.839-1.54 0.858-3.11 1.425-5.116 2.167-0.986 0.341-2.061 0.742-3.341 1.254l-1.685 0.683-1.335-1.225c-0.64-0.597-1.51-1.199-2.441-1.882-2.615-1.882-5.581-3.989-5.901-7.095-0.495-4.646 1.6-11.341 5.466-13.909 7.757-5.158 16.038-9.715 24.060-14.135 3.051-1.681 6.071-3.332 9.092-5.043 3.46-1.967 6.571-2.935 9.357-2.935 1.020 0 2.005 0.115 2.935 0.371 3.025 0.828 5.491 2.906 7.381 6.212 2.731 4.787 3.75 11.742-6.771 17.728l-0.055-0.030zM338.148 362.018c-12.786-6.298-25.891-13.679-38.938-21.973-3.778-2.394-4.969-9.745-3.894-13.363 0.93-3.081 3.806-5.043 6.131-6.583 0.668-0.457 1.278-0.853 1.714-1.225l1.017-0.883 1.336 0.226c0.959 0.141 1.627 0.226 2.121 0.286 0.959 0.115 1.714 0.201 2.528 0.653 3.080 1.741 6.19 3.452 9.299 5.158 10.49 5.815 21.329 11.802 31.615 18.355 1.337 0.853 2.238 2.449 2.703 4.757 0.64 3.196 0.407 7.697-1.308 10.121-2.499 3.533-10.345 6.468-14.384 4.471h0.058zM301.513 553.020c10.926-6.327 21.852-12.454 32.429-18.382 1.308-0.741 2.673-1.313 4.388-2.051 0.93-0.401 2.005-0.858 3.255-1.425l1.598-0.713 1.395 1.084c0.639 0.482 1.569 1.054 2.557 1.621 2.964 1.769 6.335 3.764 6.771 7.041 0.639 4.646-1.54 11.742-5.667 14.534-8.107 5.415-16.796 10.203-25.193 14.82-2.935 1.624-5.87 3.22-8.776 4.873-7.381 4.161-14.18 2.708-18.161-3.876-1.888-3.135-2.47-6.213-1.685-9.205 0.843-3.22 3.284-6.070 7.090-8.293v-0.029z" />
<glyph unicode="&#xe917;" glyph-name="money" d="M896 293.521c-4.348-8.030-7.565-17.011-13.303-23.851-8.606-10.257-20.949-13.969-34.338-13.649-3.738 0.085-7.475 0-12.343 0 0-2.927 0-5.534 0-8.171 0-31.501 0.026-63.002 0-94.498-0.090-51.063-38.050-89.229-88.969-89.314-64.478-0.085-128.981 0-193.463 0-1.997 0-4.028-0.085-5.995 0.205-7.625 1.156-13.129 7.561-13.013 15.040 0.115 7.475 5.794 13.734 13.474 14.605 2.462 0.29 4.983 0.145 7.505 0.145 63.002 0 125.973 0 188.975 0 37.611 0 61.461 23.791 61.491 61.231 0 33.207 0 66.449 0 100.757-2.987 0-5.623 0-8.26 0-34.743 0-69.491-0.375-104.235 0.145-44.949 0.695-80.243 37.76-79.462 82.59 0.755 42.714 35.674 78.357 78.387 79.083 34.748 0.58 69.491 0.145 104.239 0.175 2.722 0 5.478 0 9.331 0v7.445c0 31.501 0.060 63.002 0 94.498-0.060 35.935-24.286 60.074-60.365 60.074-175.727 0-351.455 0-527.183 0-36.455 0-60.421-24.081-60.421-60.739 0-121.476 0-242.957 0-364.433 0-36.89 24.053-60.77 61.175-60.77 63-0.030 125.972 0 188.972 0 2.492 0 5.013 0.145 7.505-0.115 7.708-0.781 13.502-6.869 13.767-14.345 0.286-7.735-5.479-14.4-13.477-15.386-2.231-0.265-4.492-0.145-6.752-0.145-63.493 0-126.986 0-190.479 0-53.061-0.030-90.762 37.585-90.762 90.5 0 121.737 0 243.477 0 365.188 0 52.478 37.789 90.179 90.269 90.237 13.214 0 27.878-3.246 39.267 1.42 11.099 4.55 18.894 17.242 28.11 26.429 53.205 53.204 106.642 106.177 159.47 159.73 16.115 16.344 32.922 30.543 56.367 34.397h19.503c23.936-4.202 41.148-18.865 56.998-35.991 9.997-10.809 20.634-21.068 31.326-31.239 1.971-1.884 5.653-3.448 8.23-3.072 39.501 5.911 65.553-6.549 85.632-41.353 20.604-35.673 41.152-71.375 61.931-106.931 1.591-2.695 4.433-5.535 7.3-6.491 40.107-13.012 63.497-44.83 63.552-87.137 0.060-31.241 0-62.481 0-93.717v-8.085c4.928 0 8.666-0.090 12.403 0 14.315 0.375 26.978-4.058 35.874-15.275 5.133-6.46 7.885-14.775 11.708-22.255v-86.993l0.060 0.060zM410.603 610.575h321.088c-1.306 2.434-2.176 4.173-3.132 5.883-17.472 30.254-34.918 60.507-52.42 90.761-15.565 26.863-40.631 33.673-67.379 18.228-63.753-36.803-127.475-73.635-191.202-110.467-2.029-1.188-3.999-2.492-6.984-4.376l0.029-0.029zM770.987 286.071v-0.055c25.732 0 51.435-0.060 77.171 0 12.254 0.026 17.792 5.589 17.822 17.937 0.055 21.965 0.055 43.959 0 65.924-0.030 12.723-5.478 18.082-18.377 18.112-50.449 0-100.873 0.090-151.326-0.085-5.649 0-11.503-0.87-16.896-2.551-23.386-7.33-38.336-30.95-35.063-54.566 3.507-25.267 24.196-44.25 49.523-44.625 25.707-0.38 51.439-0.090 77.171-0.090h-0.026zM300.715 610.024c15.069 0 28.689-0.203 42.309 0.145 3.767 0.087 7.94 1.13 11.186 3.014 75.26 43.265 150.43 86.733 225.6 130.172 1.596 0.928 2.987 2.144 4.868 3.506-13.274 13.243-25.993 25.965-38.716 38.658-22.34 22.284-47.962 22.255-70.272-0.058-56.336-56.335-112.672-112.669-169.007-169.003-1.681-1.681-3.246-3.506-5.94-6.404l-0.029-0.029zM481.967 94.003c8 0 14.754-6.549 14.985-14.519 0.23-8.23-6.665-15.33-14.925-15.36-8.26 0-15.155 7.044-14.98 15.305 0.171 7.966 6.925 14.575 14.895 14.605l0.026-0.030zM707.26 337.335c0.119-8.316-6.114-14.95-14.315-15.211-8.286-0.265-15.501 6.78-15.445 15.036 0.060 8 6.899 14.78 14.895 14.839 8.201 0.055 14.72-6.404 14.839-14.665h0.026z" />
<glyph unicode="&#xe918;" glyph-name="burger" d="M128.021 746.667h768c23.564 0 42.667-19.103 42.667-42.667s-19.103-42.667-42.667-42.667h-768c-23.564 0-42.667 19.103-42.667 42.667s19.103 42.667 42.667 42.667zM128.021 490.667h768c23.564 0 42.667-19.103 42.667-42.667s-19.103-42.667-42.667-42.667h-768c-23.564 0-42.667 19.103-42.667 42.667s19.103 42.667 42.667 42.667zM128.021 234.667h768c23.564 0 42.667-19.103 42.667-42.667s-19.103-42.667-42.667-42.667h-768c-23.564 0-42.667 19.103-42.667 42.667s19.103 42.667 42.667 42.667z" />
<glyph unicode="&#xe919;" glyph-name="checkmark-circle" d="M512 960c-282.88 0-512-229.12-512-512s229.12-512 512-512 512 229.12 512 512-229.12 512-512 512zM686.507 565.333l-238.080-265.387c-5.547-6.4-14.080-10.24-22.613-10.667s-17.067 2.56-23.040 8.533l-94.293 89.173c-12.8 11.947-13.227 32.427-0.853 45.227 11.947 12.8 32 13.227 45.227 1.28l69.973-66.56 215.893 241.067c11.947 13.227 32 14.080 45.227 2.56 13.227-11.947 14.080-32 2.56-45.227z" />
<glyph unicode="&#xe91a;" glyph-name="info-square-filled" d="M768 960h-512c-141.227 0-256-114.773-256-256v-512c0-141.227 114.773-256 256-256h512c141.227 0 256 114.773 256 256v512c0 141.227-114.773 256-256 256zM549.973 243.2c0-20.907-17.067-38.4-38.4-38.4s-38.4 17.493-38.4 38.4v204.8c0 20.907 17.493 38.4 38.4 38.4s38.4-17.493 38.4-38.4v-204.8zM512 591.36c-28.16 0-51.627 22.613-51.627 51.2s23.040 51.2 51.2 51.2h0.427c28.16 0 51.2-23.040 51.2-51.2s-23.040-51.2-51.2-51.2z" />
<glyph unicode="&#xe91b;" glyph-name="checkmark" d="M788.826 685.629c13.419-11.502 14.972-31.703 3.473-45.122l-365.716-426.666c-6.080-7.091-14.955-11.174-24.297-11.174s-18.217 4.083-24.296 11.174l-146.286 170.667c-11.502 13.419-9.947 33.621 3.471 45.12 13.418 11.503 33.62 9.95 45.122-3.469l121.989-142.323 341.42 398.322c11.499 13.418 31.701 14.973 45.12 3.471z" />
<glyph unicode="&#xe91c;" glyph-name="vector-stroke" d="M512 934.4c42.415 0 76.8-34.384 76.8-76.8v-332.8h332.8c42.415 0 76.8-34.385 76.8-76.8s-34.385-76.8-76.8-76.8h-332.8v-332.8c0-42.415-34.385-76.8-76.8-76.8s-76.8 34.385-76.8 76.8v332.8h-332.8c-42.416 0-76.8 34.385-76.8 76.8s34.384 76.8 76.8 76.8h332.8v332.8c0 42.416 34.385 76.8 76.8 76.8z" />
<glyph unicode="&#xe91d;" glyph-name="beneficiary-list" d="M1024.021 158.46c-2.667-12.766-4.668-25.749-8.162-38.302-26.825-96.849-116.958-160.337-217.92-153.856-95.625 6.178-177.545 83.379-191.518 180.851-6.639 46.481 1.387 90.534 23.305 132.642-2.103 1.647-4.023 3.375-6.131 4.779-34.961 22.886-69.867 45.888-105.015 68.369-2.85 1.839-8.559 2.701-11.093 1.028-37.705-24.132-75.093-48.751-113.012-73.557 4.373-10.364 9.093-20.271 12.8-30.554 46.375-128.486-40.587-269.551-174.56-283.426-11.147-1.161-18.88 4.13-19.787 13.495-0.853 8.909 5.067 15.305 16 16.683 33.617 3.806 65.512 17.054 92.080 38.251 1.813 1.429 3.467 3.076 5.653 5.018-9.409 22.080-23.301 41.907-40.773 58.197-11.703 10.509-24.184 20.092-37.333 28.668-15.413 10.338-16.667 19.136-2.667 31.475 8.862 7.578 15.13 17.801 17.908 29.201 2.778 11.405 1.923 23.403-2.442 34.283-9.173 22.622-30.827 35.93-55.814 34.257-11.212-0.845-21.878-5.235-30.492-12.548s-14.738-17.182-17.508-28.211c-5.573-22.135 0.267-41.301 17.173-56.687 14.107-12.902 13.147-21.999-3.44-31.987-34.109-20.198-61.206-50.59-77.574-86.997 19.314-17.092 42.113-29.662 66.773-36.817 3.174-0.947 6.48-1.51 9.68-2.483 9.52-2.97 14.053-10.419 11.787-19.166-0.529-1.963-1.448-3.797-2.699-5.393s-2.809-2.914-4.579-3.883c-1.77-0.969-3.716-1.557-5.72-1.741s-4.023 0.047-5.935 0.678c-11.319 2.718-22.411 6.327-33.173 10.799-73.049 32.823-115.725 89.271-128.027 169.353-0.442 1.899-1.039 3.759-1.787 5.559v42.513c2.24 10.799 3.733 21.837 6.8 32.393 23.68 81.165 75.52 134.72 157.173 153.156 82.854 18.735 153.013-7.612 208.64-72.879l4.8-5.589c2.187 1.186 4.267 2.189 6.16 3.43 35.546 23.185 71.040 46.507 106.667 69.534 2.317 1.212 4.228 3.085 5.504 5.389 1.276 2.3 1.856 4.932 1.668 7.565-0.286 33.399-0.286 66.799 0 100.198 0 6.993-1.412 9.852-9.118 10.607-95.522 9.421-175.202 90.886-184.668 187.628-5.333 53.608 7.066 102.303 37.547 146.328 8.613 12.443 17.2 15.413 25.387 9.204s7.6-14.684-0.747-26.561c-21.809-30.785-33.538-67.714-33.538-105.596s11.729-74.811 33.538-105.596c2.106-2.996 4.427-5.83 7.386-9.717 17.533 32.975 42.57 61.251 73.039 82.49-32.719 45.294-18.667 94.934 10.428 120.253 15.573 13.521 35.435 20.911 55.949 20.817s40.311-7.666 55.757-21.329c30.293-26.993 41.493-76.687 9.762-119.605 30.515-21.231 55.561-49.554 73.041-82.598 18.103 21.709 30.656 47.589 36.557 75.364 6.153 27.852 5.751 56.777-1.169 84.442s-20.164 53.298-38.673 74.83c-18.505 21.532-41.749 38.359-67.861 49.127-26.108 10.767-54.353 15.173-82.453 12.861-28.71-2.137-56.444-11.479-80.695-27.182-1.68-1.107-3.36-2.213-5.067-3.239-9.626-5.777-17.84-4.697-22.827 2.996s-2.88 16.196 6.293 22.323c30.047 21.025 65.218 33.303 101.681 35.495 110.238 6.235 201.041-65.836 221.948-175.453 21.333-112.263-57.894-226.982-169.762-245.499-21.786-3.593-21.786-3.593-21.786-26.534 0-28.668 0-57.331 0.158-86.025 0-3.567 1.148-8.802 3.601-10.449 38.054-25.374 76.429-50.287 112.934-74.121 17.839 15.898 33.438 32.875 51.891 45.67 55.202 38.357 115.789 47.023 180.083 28.019 12.023-3.537 16.93-13.82 11.307-22.972-4.83-7.774-11.87-8.585-20.134-6.071-31.386 9.749-64.798 10.684-96.666 2.697-125.069-30.69-178.189-185.357-98.667-287.714 0.823-1.054 1.783-1.971 2.347-2.564 10.88 14.793 20.745 30.366 32.798 43.942s26.509 25.374 40 38.114c-26.825 49.37-22.374 90.965 13.521 120.819 15.411 12.646 34.705 19.443 54.541 19.217s38.972-7.462 54.097-20.459c34.667-29.879 38.775-71.663 11.281-120.926 30.345-21.043 55.223-49.182 72.533-82.031 13.764 16.209 24.299 34.961 31.014 55.228 12.425 36.1 13.295 75.247 2.492 111.881-10.803 36.629-32.734 68.885-62.677 92.186-1.574 1.242-3.2 2.428-4.723 3.75-7.757 6.882-8.905 15.117-3.17 22.187 5.333 6.532 13.679 7.45 21.333 1.783 23.343-17.050 42.901-38.861 57.412-64.026 14.481-24.713 23.821-52.16 27.439-80.657 0.375-2.914 1.229-5.777 1.869-8.666l0.026-38.357zM348.928 63.663c53.6 62.596 59.44 172.297-14.027 244.907-70.88 69.939-184.774 68.156-254.267-4.51-71.013-74.227-60.667-182.579-10.373-239.586 10.667 14.63 20.72 30.285 32.826 43.972 12.107 13.683 26.48 25.399 40 38.165-26.48 50.044-22.080 91.183 13.52 120.819 15.408 12.646 34.696 19.452 54.531 19.234s38.974-7.441 54.109-20.42c34.667-29.692 38.72-71.505 11.36-120.93 30.203-20.979 55.002-48.977 72.32-81.651zM395.781 575.555c62.694-56.387 162.905-58.17 227.545-5.129 4.723 3.86 5.333 6.964 2.321 11.715-6.054 9.664-11.439 19.813-18.108 29.017-15.552 21.156-35.273 38.813-57.92 51.853-14.319 8.449-15.279 18.571-3.145 29.53 1.254 1.107 2.505 2.214 3.708 3.374 7.987 7.74 13.483 17.739 15.77 28.69 2.283 10.951 1.254 22.346-2.961 32.695-4.211 10.349-11.413 19.171-20.655 25.312-9.246 6.142-20.105 9.318-31.159 9.114-11.059-0.204-21.794-3.779-30.814-10.259-9.015-6.479-15.893-15.561-19.729-26.058-3.84-10.498-4.459-21.923-1.779-32.783s8.533-20.649 16.794-28.089c15.253-13.955 14.374-22.296-3.362-33.093-33.579-20.036-60.282-50.014-76.505-85.891zM697.779 40.503c67.682-61.867 174.827-55.526 232.457 0.405-16.482 35.989-43.477 65.997-77.333 85.973-16.427 9.958-17.229 18.893-2.829 31.851 8.448 7.415 14.455 17.267 17.225 28.233 2.769 10.97 2.167 22.528-1.728 33.139s-10.897 19.763-20.070 26.24c-9.173 6.473-20.079 9.963-31.262 9.993-11.183 0.034-22.11-3.388-31.317-9.805-9.212-6.421-16.265-15.535-20.224-26.121-3.955-10.586-4.625-22.144-1.924-33.126 2.705-10.982 8.657-20.868 17.062-28.339 14.801-13.495 13.918-22.187-3.174-32.525-33.698-20.015-60.527-50.001-76.881-85.918z" />
<glyph unicode="&#xe91e;" glyph-name="general-info" d="M42.688 816.727c6.038 11.945 10.291 25.038 18.48 35.239 13.151 16.389 32.267 22.338 53.778 22.314 142.365-0.175 284.737-0.175 427.118 0h217.237c2.739 0 5.5 0.119 8.239 0 3.422 0.038 6.724-1.249 9.178-3.581 2.458-2.333 3.866-5.52 3.925-8.866 0.282-3.459-0.841-6.889-3.132-9.542-2.287-2.653-5.555-4.316-9.092-4.625-3.349-0.259-6.711-0.315-10.069-0.167h-642.768c-23.834 0-40.431-12.328-44.611-33.065-0.599-3.536-0.845-7.121-0.733-10.703 0-154.67 0-309.347 0-464.031v-8.96h170.964c13.958 0 20.803-4.373 21.047-13.308s-6.771-13.739-21.364-13.739h-169.743c0-21.811-1.809-43.004 0.513-63.838 2.322-20.83 20.289-32.273 43.854-32.273h619.618c9.459 0 18.944 0 28.403 0 10.633-0.145 17.114-5.235 17.114-13.427 0-8.196-6.089-13.474-16.819-13.5-38.182 0-76.373 0-114.573 0h-10.927c8.239-30.221 16.209-59.537 24.448-89.545 15.471 0 30.724 0.119 45.952 0 7.334 0 13.325-3.772 13.542-10.701 0-4.779-3.251-10.368-6.746-14.097-2.052-2.172-7.334-1.911-11.268-1.911-48.887-0.128-97.779-0.128-146.667 0h-234.667c-2.444 0-4.889 0-7.333 0-8.58 0.457-14.251 5.687-14.324 13.167-0.055 1.805 0.271 3.601 0.957 5.278s1.718 3.2 3.032 4.471c1.314 1.271 2.881 2.261 4.605 2.914s3.566 0.956 5.413 0.879c12.516 0.384 25.031 0.119 37.571 0.145h8.58c8.116 29.794 16.084 59.106 24.444 89.493h-259.111c-50.234-0.358-66.953 11.157-84.064 57.22v578.758zM632.947 91.281c0.149 1.284 0.149 2.581 0 3.87-7.334 26.756-14.665 53.491-21.705 80.32-1.442 5.542-5.111 4.919-9.024 4.919-60.13 0-120.265 0-180.373 0.145-6.209 0-8.287-2.223-9.778-7.693-6.551-25.109-13.567-50.172-20.362-75.136-0.423-2.125-0.717-4.271-0.88-6.426h242.122zM981.363 237.978c-1.148-3.682-2.274-7.386-3.473-11.038-4.25-13.205-12.629-24.772-23.953-33.079-11.324-8.311-25.028-12.941-39.185-13.248-30.238-0.499-60.501-0.26-90.739-0.141-9.775 0-15.181 4.898-15.398 12.898-0.222 8.004 5.525 13.858 15.45 13.931 28.403 0.166 56.832 0 85.235 0 27.477 0 44.416 16.721 44.514 43.648 0 17.011 0 33.997 0 52.561h-639.784c-3.972-0.111-7.948 0.013-11.904 0.38-7.333 0.887-11.66 5.116-11.978 12.378-0.367 7.714 3.838 12.425 11.514 13.76 3.628 0.486 7.292 0.666 10.951 0.525h641.228v9.822c0 154.095 0 308.184 0 462.264 0 28.215-16.649 44.605-45.346 44.676-26.889 0-53.777 0-80.666 0-2.735-0.191-5.487-0.054-8.188 0.406-7.334 1.887-11.588 6.618-10.901 14.334 0.657 7.168 5.154 11.945 12.463 11.945 33.297 0.167 66.761 1.792 99.857-0.74 29.333-2.222 48.546-20.427 57.69-48.045 0.93-2.819 1.758-5.662 2.641-8.481l-0.026-578.756zM289.937 644.479h86.729c15.424 0 20.436-5.256 19.555-20.092-3.715-60.325-53.778-108.679-114.669-110.782-63.091-2.078-116.503 41.403-124.862 101.847-9.314 67.468 43.633 129.489 113.324 132.881 14.227 0.693 19.751-4.253 19.8-18.014 0-25.085 0-50.171 0-75.232l0.122-10.608zM262.388 719.592c-34.98-2.389-82.671-37.485-78.736-96.233 3.153-46.993 46.004-84.311 96.336-82.806 43.756 1.314 86.827 39.276 86.436 76.953h-83.111c-17.625 0-20.876 3.153-20.876 20.188-0.073 27.092-0.049 54.208-0.049 81.898zM615.305 651.697l-73.946-63.43c-11.708-10.058-23.343-20.188-35.123-30.127-7.996-6.761-16.256-6.88-21.807-0.621-5.547 6.26-4.425 13.737 3.814 20.905 38.067 32.747 76.143 65.461 114.227 98.144 9.314 8.003 13.884 8.099 24.154 0.55 15.351-11.3 30.626-22.648 46.443-34.427l45.517 46.946c13.026 13.427 15.889 13.642 31.484 2.389 13.542-9.556 27.132-19.304 41.408-29.457 14.519 19.113 28.749 38.225 42.999 56.98 2.91 3.846 5.623 7.836 8.777 11.468 5.423 6.307 13.466 7.382 19.554 2.891 1.425-1.027 2.624-2.321 3.529-3.807 0.909-1.485 1.502-3.133 1.749-4.845 0.252-1.713 0.145-3.456-0.303-5.129s-1.233-3.242-2.313-4.615c-19.699-26.598-39.607-53.038-59.716-79.318-5.794-7.573-12.834-7.836-21.632-1.673-15.842 11.11-31.535 22.41-47.791 33.973-16.060-16.556-31.778-32.802-47.543-49-10.586-10.895-15.057-11.205-27.23-2.174-15.279 11.468-30.579 22.792-46.251 34.379zM384.916 669.567c-16.794 0-33.587 0-50.38 0-11.758 0-16.622 4.778-16.671 16.39-0.098 32.539-0.098 65.071 0 97.594 0 11.945 5.378 16.939 17.331 16.724 61.942-0.43 115.718-52.799 116.55-113.387 0.196-12.758-4.228-17.249-17.306-17.297-16.5-0.072-32.976-0.024-49.524-0.024zM345.805 696.445h76.682c-3.153 37.27-43.267 75.925-76.56 74.683l-0.122-74.683zM868.109 521.941c0-34.308 0-68.612 0-102.921 0-2.987 0.951-6.835-0.589-8.768-3.251-4.109-7.479-9.557-11.951-10.108-3.985-0.619-9.583 3.729-13.056 7.168-2.052 2.078-1.856 6.737-1.856 10.249-0.098 70.080-0.098 140.161 0 210.241-0.060 1.194-0.060 2.39 0 3.584 0.759 8.84 6.549 14.478 14.494 14.096s12.86-5.734 12.881-14.478c0.149-36.386 0-72.796 0-109.182l0.077 0.119zM720.896 504.934c0 29.815 0 59.631 0 89.447 0 11.253 4.89 17.536 13.564 17.608 8.678 0.072 13.909-6.403 13.935-17.417 0-59.345 0-118.681 0-178.009 0-10.871-5.5-17.348-14.178-17.109s-13.274 6.379-13.299 16.917c-0.047 29.53-0.055 59.051-0.021 88.563zM600.875 495.108c0 24.465 0 48.92 0 73.368-0.107 2.985 0.030 5.972 0.414 8.935 0.457 3.111 2.039 5.96 4.454 8.032 2.419 2.072 5.517 3.229 8.73 3.264 3.217 0.035 6.34-1.056 8.802-3.075 2.466-2.019 4.109-4.833 4.634-7.934 0.444-2.95 0.614-5.932 0.516-8.911 0-49.79 0-99.595 0-149.412 0-1.195 0-2.389 0-3.584-0.367-10.3-5.769-16.559-14.080-16.341-8.311 0.213-13.227 6.161-13.444 16.030-0.196 8.934 0 17.894 0 26.829l-0.026 52.8zM281.874 455.548c-22.587 0-45.19 0-67.809 0-3.357-0.085-6.714 0.154-10.022 0.717-2.996 0.606-5.69 2.193-7.634 4.501s-3.022 5.197-3.054 8.188c-0.031 2.987 0.985 5.897 2.881 8.243s4.556 3.989 7.538 4.655c3.303 0.602 6.663 0.858 10.022 0.764h135.642c13.934 0 20.753-4.442 20.851-13.402s-6.796-13.692-20.582-13.692c-22.603-0.013-45.214-0.004-67.833 0.026zM780.902 489.378c0 25.062-0.124 50.17 0 75.208 0 9.174 5.594 14.932 13.393 15.027s13.372-5.71 14.007-14.693c0.171-2.078 0-4.181 0-6.259v-137.921c0.102-2.688 0.043-5.376-0.171-8.051-0.956-8.171-7.113-13.978-14.447-13.167-8.090 0.909-12.638 5.641-12.86 13.713-0.218 8.077 0 16.128 0 24.179v51.964h0.077zM281.952 399.241c-23.784 0-47.569 0-71.353 0-11.098 0-17.698 5.47-17.38 13.978 0.318 8.119 6.6 12.851 17.453 12.877 47.552 0 95.113 0 142.682 0 10.658 0 16.989-5.137 16.965-13.355s-6.478-13.427-17.111-13.453c-23.687-0.047-47.471-0.047-71.256-0.047zM688.269 481.259c0-21.786 0-43.575 0-65.387 0-10.321-5.453-16.58-13.837-16.439-8.384 0.145-13.641 6.404-13.641 16.725 0 43.593 0 87.185 0 130.778 0 10.225 5.67 16.58 14.033 16.437 8.358-0.143 13.419-6.212 13.444-16.724 0.047-21.789 0-43.575 0-65.391zM541.077 469.935c0 17.92 0 35.836 0 53.756 0 10.464 5.282 16.723 13.713 16.556 8.435-0.167 13.764-6.403 13.79-16.722 0-35.836 0-71.676 0-107.511 0-10.27-5.551-16.58-13.961-16.533-8.41 0.051-13.47 6.263-13.517 16.725-0.073 17.894-0.026 35.814-0.026 53.73zM508.446 451.106c0-11.947 0-23.889 0-35.836 0-9.677-5.453-15.791-13.568-15.842-8.115-0.047-13.811 6.046-13.884 15.625-0.132 24.196-0.132 48.38 0 72.559 0 9.557 5.939 15.578 14.106 15.36 8.162-0.213 13.175-6.089 13.295-15.147 0.171-12.254 0.051-24.486 0.051-36.719z" />
<glyph unicode="&#xe91f;" glyph-name="arrow-down" d="M86.37 690.011c16.029 16.957 41.112 18.498 58.787 4.625l5.064-4.625 361.783-382.721 361.779 382.721c16.030 16.957 41.114 18.498 58.79 4.625l5.060-4.625c16.030-16.956 17.489-43.49 4.373-62.188l-4.373-5.357-393.707-416.476c-16.030-16.956-41.109-18.5-58.786-4.625l-5.065 4.625-393.707 416.476c-17.632 18.652-17.632 48.893 0 67.544z" />
<glyph unicode="&#xe920;" glyph-name="arrow-up" d="M86.37 205.99c16.029-16.956 41.112-18.5 58.787-4.625l5.064 4.625 361.783 382.72 361.779-382.72c16.030-16.956 41.114-18.5 58.79-4.625l5.060 4.625c16.030 16.956 17.489 43.49 4.373 62.187l-4.373 5.355-393.707 416.479c-16.030 16.957-41.109 18.498-58.786 4.625l-5.065-4.625-393.707-416.479c-17.632-18.65-17.632-48.892 0-67.541z" />
<glyph unicode="&#xe921;" glyph-name="export" d="M853.175 639.398c-47.326 196.733-238.528 316.181-427.061 266.796-147.336-38.594-254.319-171.471-265.341-329.563-104.614-18.002-175.437-121.088-158.185-230.25 15.336-97.050 95.923-168.119 190.181-167.731h159.983v66.778h-159.983c-70.684 0-127.986 59.793-127.986 133.547 0 73.758 57.302 133.551 127.986 133.551 17.672 0 31.997 14.95 31.997 33.39-0.16 165.955 128.64 300.625 287.682 300.789 137.673 0.144 256.183-101.417 282.816-242.361 2.628-14.073 13.572-24.823 27.196-26.71 87.475-12.998 148.288-97.53 135.834-188.807-11.187-81.963-78.251-142.989-157.589-143.398h-127.987v-66.778h127.987c123.699 0.393 223.671 105.344 223.296 234.423-0.311 107.443-70.793 200.827-170.825 226.325zM535.138-19.042l127.987 133.551-45.116 47.078-73.591-76.459v320.188h-63.991v-320.188l-73.274 76.459-45.115-47.078 127.985-133.551c12.48-12.945 32.636-12.945 45.116 0z" />
<glyph unicode="&#xe922;" glyph-name="lock" d="M862.34 490.752c-2.061-69.103-19.593-134.929-48.862-197.53-36.663-78.396-89.434-144.444-157.713-198.379-42.692-33.698-90.654-58.394-139.998-80.755-2.423-1.109-6.37-0.593-8.977 0.555-68.015 29.833-131.004 67.217-184.015 119.744-73.786 73.126-123.312 159.65-148.014 260.109-10.257 41.762-14.745 84.262-14.926 127.117-0.401 90.053 0 180.105-0.32 270.157-0.040 8.484 2.484 10.723 10.778 11.060 123.091 4.956 233.882 44.778 333.331 116.098 6.494 4.658 10.338 4.321 16.55-0.159 75.648-54.649 159.475-91.023 251.712-107.376 25.626-4.559 51.827-6.145 77.833-8.464 14.144-1.269 14.204-0.674 14.204-14.272v-122.778c0-8.762 7.172-15.858 16.030-15.858 8.875 0 16.068 7.136 16.047 15.937-0.179 39.248-0.439 104.265-0.422 143.512 0 19.346-4.207 23.687-23.637 24.084-67.657 1.368-133.21 13.321-196.599 37.127-54.114 20.318-103.258 49.179-149.658 83.015-11.721 8.543-15.787 8.246-27.767 0.059-18.551-12.706-36.723-26.106-55.996-37.662-89.434-53.559-186.621-80.855-291.16-82.579-18.111-0.297-22.699-5.054-22.699-23.073-0.020-96.117 0.080-192.255-0.060-288.372-0.060-43.925 4.448-87.356 14.445-130.112 14.265-61.052 37.885-118.455 71.142-171.836 45.558-73.143 103.878-134.537 177.645-179.968 37.345-22.972 77.712-41.131 116.722-61.487h7.731c16.247 7.71 32.495 15.42 48.725 23.151 50.607 24.064 97.668 53.679 138.876 91.401 121.472 111.181 187.584 248.41 191.612 412.557 0.038 1.783 0.081 3.571 0.119 5.355 0.201 8.9-7.031 16.213-16.030 16.213h-0.158c-8.755 0-15.889-6.938-16.030-15.599-0.098-6.997-0.26-13.995-0.461-20.992zM689.028 509.44c-0.196 12.681-6.229 18.377-18.97 18.688-3.994 0.098-8.030 0-12.855 0 0 23.952 0.077 46.647-0.043 69.361-0.060 8.854 0.277 17.806-1.007 26.523-11.358 77.312-75.665 128.375-154.163 122.741-68.582-4.928-126.386-64.453-128.305-132.93-0.791-28.074-0.139-56.187-0.139-85.183-3.462-0.235-5.341-0.452-7.22-0.491-21.127-0.354-24.984-4.224-24.984-25.131 0-67.691-0.020-135.364 0-203.038 0.020-17.609 4.985-22.537 22.729-22.537 100.692-0.021 201.402-0.021 302.092 0 18.219 0 22.925 4.791 22.946 23.266v162.24c0 15.488 0.196 30.997-0.081 46.49zM407.869 628.98c9.436 55.009 60.137 90.701 116.18 86.912 53.666-3.652 97.463-46.902 101.163-102.245 1.882-27.936 0.337-56.128 0.337-85.126h-31.531v17.12c0 19.279 0.196 38.558-0.038 57.837-0.576 46.744-34.5 81.533-78.972 81.238-44.766-0.294-78.080-34.828-78.532-81.67-0.218-21.497-0.043-42.994-0.043-64.492v-9.836h-33.094c1.266 33.748-1.068 67.673 4.53 100.263zM467.789 605.185c0.631 25.659 17.865 45.076 41.643 47.922 22.647 2.709 44.13-11.092 50.837-32.864 1.109-3.613 1.681-7.401 2.155-11.151 0.397-3.121 0.337-6.302 0.337-9.463 0.021-23.363 0.021-46.725 0.021-71.126h-95.113v17.863c0.021 19.613-0.354 39.226 0.119 58.819zM656.649 309.15h-282.607v78.037h46.132c8.644 0 15.65 6.95 15.65 15.531v0.060c0 8.58-7.006 15.526-15.65 15.526h-46.112v77.589h282.527v-77.372h-46.212c-8.644 0-15.646-6.95-15.646-15.531 0-8.576 7.002-15.526 15.646-15.526h46.272v-78.315zM515.806 449.783c-25.438 0.546-47.693-21.107-48.013-46.707-0.316-25.344 21.602-47.296 47.322-47.394 25.596-0.098 47.633 21.773 47.514 47.177-0.115 25.19-21.244 46.374-46.822 46.925zM515.251 387.469c-8.939-0.021-15.684 6.852-15.467 15.727 0.235 8.401 6.921 14.878 15.39 14.899 8.841 0.021 15.706-6.989 15.467-15.804-0.235-8.444-6.844-14.822-15.39-14.822z" />
<glyph unicode="&#xe923;" glyph-name="headphone" d="M499.221 363.866c0-7.501-5.82-13.321-13.321-13.321h-85.74c-3.86-0.060-7.9 1.34-10.42 4.361-5.080 5.577-4.6 13.798 0.72 18.897l71.7 64.922c12.139 10.88 13.419 30.020 3.46 42.782-10.261 13.137-29.841 15.317-43.201 5.636-5.34-3.878-9.8-10.859-16.64-12.036-6.4-1.101-12.72 2.837-14.82 8.896-3.36 9.681 4.9 15.462 11.14 21.082 10.9 10.18 25.202 15.019 39 15.019 15.74 0 31.74-6.537 43.119-19.14 10.18-10.897 15.019-25.199 15.019-38.997 0-15.74-6.537-31.723-19.136-43.119l-45.781-41.421h51.601c7.497 0 13.316-6.063 13.316-13.559h-0.017zM635.597 395.605c0-7.501-6.059-13.321-13.559-13.321h-2.419v-18.398c0-7.501-5.82-13.321-13.321-13.321s-13.321 5.82-13.321 13.321v18.398h-75.819c-11.243-0.38-17.843 12.779-10.901 21.559 3.081 3.84 88.602 110.421 89.621 111.42 0.841 0.819 1.92 1.903 2.918 2.56 8.742 5.662 20.838-0.26 20.838-11.021v-97.86h2.423c7.497 0 13.559-6.059 13.559-13.316l-0.021-0.021zM592.956 468.745l-48.201-59.819h48.201v59.819zM944.060 608.52c-36.518 205.36-226.359 351.48-432.060 351.48s-395.54-146.12-432.060-351.48c-45.24-7.060-79.94-46-79.94-92.859v-49.66c0-19.341 30-19.341 30 0v49.66c0 35.299 29.020 63.999 64.7 63.999h31.3v-311.261h-31.3c-35.68 0-64.7 28.719-64.7 64v57.583c0 19.337-30 19.337-30 0v-57.583c0-51.84 42.48-93.999 94.7-93.999h32.9c13.9-51.938 93.54-41.719 93.54 12.16v346.96c0 53.78-79.6 64.18-93.54 12.16h-16.92c36.84 188.16 212.3 320.32 401.32 320.32 189.022 0 364.48-132.16 401.318-320.34h-16.917c-13.901 51.94-93.542 41.72-93.542-12.16v-346.961c0-53.777 79.603-64.179 93.542-12.16h16.721c-26.923-142.541-157.222-235.46-298.803-239.957-6.379 18.658-24.158 32.119-45.039 32.119h-114.522c-25.779 0-47.578-21.423-47.578-47.279 0-25.86 21.799-47.283 47.578-47.283h114.522c21.022 0 38.882 13.619 45.158 32.461 158.643 4.681 302.421 111.262 329.361 271.061 45.359 6.938 80.222 45.961 80.222 92.898v183.262c0 46.859-34.701 85.799-79.94 92.859h-0.021zM156 597.52c0 22.32 35.14 22.32 35.14 0v-346.96c0-22.319-35.14-22.34-35.14 0v346.96zM569.259-34.001h-114.517c-22.601 0-22.622 34.581 0 34.581h114.517c22.601 0 22.622-34.581 0-34.581zM868.002 250.56c0-22.319-35.14-22.34-35.14 0v346.96c0 22.32 35.14 22.32 35.14 0v-346.96zM994.001 332.399c0-35.298-29.022-64-64.7-64h-31.3v311.261h31.3c35.678 0 64.7-28.72 64.7-63.999v-183.262zM589.53 202.377l90.202-39.74c9.741-4.301 21.039 3.119 21.039 13.722v100.378c38.042 44.361 58.901 100.599 58.901 159.002 0 51.439-15.859 100.679-45.858 142.439-11.281 15.72-35.661-1.8-24.363-17.5 26.321-36.619 40.222-79.819 40.222-124.922 0-52.919-19.563-103.838-55.061-143.339-2.479-2.761-3.84-6.319-3.84-10.018v-83.021l-74.5 32.819c-3.499 1.54-7.441 1.681-11.038 0.422-23.479-8.303-48.141-12.523-73.242-12.523-120.040 0-217.7 96.742-217.7 215.659 0 118.922 97.66 215.662 217.7 215.662 44.762 0 87.761-13.34 124.322-38.6 15.919-11 32.96 13.7 17.037 24.68-41.6 28.72-90.479 43.92-141.359 43.92-136.58 0-247.7-110.2-247.7-245.662 0-135.458 111.12-245.658 247.7-245.658 26.5 0 52.561 4.139 77.538 12.301v-0.021z" />
<glyph unicode="&#xe924;" glyph-name="dashboard" d="M1024.009 24.162c-5.346-6.682-9.89-13.892-16.038-20.036-18.714-19.238-37.423-37.939-56.401-56.64-15.501-15.228-29.67-15.228-45.171 0.269-64.418 64.384-128.836 128.499-192.986 192.883-15.236 15.228-16.038 26.449-4.275 43.012-17.643 17.634-35.285 34.999-53.726 53.431-51.588-40.606-111.731-68.122-179.354-80.678 0-29.922 0-59.042 0-88.431 0-3.738 0-7.211 0-10.953-0.538-9.617-6.148-15.492-14.972-15.492-8.55 0-14.434 5.875-14.967 15.492-0.269 9.084 0 17.899 0 26.982 0 22.174 0 44.617 0 68.126-9.357-0.533-18.176-1.335-28.6-1.869 0-3.742 0-7.215 0-10.688 0-48.623 0-97.246 0-145.865 0-4.011 0-8.017-1.069-11.755-1.871-7.484-7.485-11.221-14.969-10.688-7.751 0.533-12.83 5.077-13.632 13.359-0.268 3.204-0.268 6.677-0.268 9.886 0 48.085 0 95.906 0 143.996 0 3.738 0 7.211 0 12.019-9.89 0.802-18.978 1.604-29.135 2.406 0-6.682 0-12.292 0-17.899 0-25.382 0-50.761 0-75.874 0-11.221-5.613-17.365-14.968-17.365-9.088 0-14.968 6.413-14.968 17.365-0.268 29.12 0 57.971 0 87.091 0 3.742 0 7.215 0 8.017-33.145 12.019-66.022 20.57-95.691 35.264-130.974 64.115-209.558 168.572-229.070 312.836-27.799 203.571 100.77 392.449 299.635 444.544 21.651 5.61 44.638 7.747 66.823 11.488 2.673 0.534 5.079 1.069 7.752 1.603 17.908 0 36.084 0 53.994 0 20.045-3.206 40.094-5.61 59.874-9.885 68.962-14.693 129.37-46.218 182.293-92.702 8.819-7.747 10.423-16.564 4.544-23.51-6.148-7.48-15.236-7.213-24.593 1.069-50.517 44.614-108.518 75.337-175.074 86.825-154.497 27.517-280.66-21.907-376.35-145.599-53.993-69.727-76.179-150.942-72.704-238.836 6.415-159.225 118.678-300.281 273.174-343.293 211.695-59.038 427.938 73.737 469.636 289.865 20.847 107.928-2.675 207.043-67.895 295.738-2.138 2.938-4.544 5.61-6.413 8.816-4.544 7.213-3.477 14.159 2.94 19.77 6.148 5.343 14.434 4.809 20.582-1.87 3.473-4.007 6.682-8.282 9.89-12.556 37.15-50.759 61.474-107.129 71.902-169.376 1.067-6.679 4.006-7.747 9.886-7.747 29.406 0.268 58.807 0.268 87.94 0 4.544 0 10.428-0.267 13.099-3.206 3.473-3.473 6.95-10.419 5.615-14.426-1.604-4.809-7.753-10.419-12.565-11.488-9.353-1.87-19.243-0.801-28.868-0.801-22.985 0-45.973 0-68.962 0 0-9.885 0-18.701 0-28.853 4.279 0 7.753 0 11.494 0 49.719 0 99.435 0 149.15 0 3.209 0 6.682 0.267 9.89-0.267 7.753-1.603 12.297-6.412 12.565-14.426 0-8.015-4.544-13.090-12.297-14.694-2.94-0.533-5.879-0.265-9.088-0.265-49.984 0-99.968 0-149.952 0-3.742 0-7.219 0-12.028 0-1.071-9.084-2.138-17.903-3.209-28.053 3.742-0.269 7.215-0.533 10.692-0.533 26.995 0 53.995 0 80.99 0 2.94 0 6.148 0 9.088-0.269 8.819-1.067 14.699-7.211 14.699-14.959 0-8.282-6.413-14.694-15.501-14.694-18.445-0.269-36.621 0-55.061 0-16.307 0-32.61 0-49.984 0-13.901-61.713-40.094-117.013-78.583-165.636 17.907-18.163 35.55-35.797 53.188-53.431 19.511 12.557 28.599 11.49 45.709-5.342 43.302-43.277 86.869-86.822 130.172-130.103 1.604-1.604 3.473-3.204 4.813-5.077 5.611-6.677 5.611-14.959 0.265-20.834-5.879-6.148-14.434-6.682-21.385-0.269-9.89 9.348-19.511 19.234-29.133 28.851-6.682 6.946-13.363 13.892-18.978 20.036-21.918-21.636-42.765-42.475-63.083-62.511 34.748-34.731 70.566-70.263 106.116-105.796 19.78 20.036 40.627 40.875 63.083 63.586-3.742 3.204-8.823 6.409-12.565 10.419-6.413 6.942-5.879 15.761 0.269 21.372 5.879 5.342 14.703 5.611 20.582-0.538 8.017-8.282 14.967-17.365 22.451-26.18-0.265-4.809-0.265-9.617-0.265-14.157zM817.924 201.818c-7.219 8.017-14.434 16.299-20.049 22.707-21.116-21.103-41.963-41.941-62.012-61.978 6.417-6.682 13.901-14.694 20.851-22.174 20.847 21.103 41.698 41.677 61.21 61.444zM859.887 158.805c-5.879 7.479-12.028 14.694-16.836 20.838-21.385-21.103-41.967-41.677-62.281-62.246 6.148-5.875 12.83-12.557 19.243-18.701 20.318 20.57 40.896 41.143 59.874 60.109zM701.385 277.423c-6.417-6.144-13.099-12.557-18.709-17.634 17.105-17.097 34.21-34.193 50.782-51.025 5.884 5.611 12.565 12.023 18.714 17.899-17.109 17.101-33.946 33.929-50.786 50.761zM59.625 551.791c-0.267 165.368 115.738 308.295 277.184 341.689 187.641 38.47 374.479-88.428 407.353-277.038 32.61-185.939-85.534-361.193-270.767-399.127-99.967-20.57-191.649 2.138-274.51 61.18-9.623 6.946-11.494 15.228-5.881 22.972 5.613 7.484 14.167 8.017 23.789 1.071 59.607-43.012 126.162-63.582 199.401-62.246 143.536 2.94 273.175 114.342 298.032 255.13 30.204 171.781-73.237 328.066-242.701 367.337-146.211 33.661-302.043-47.553-357.373-189.145-45.975-117.548-28.868-226.547 51.855-324.591 8.019-9.617 8.553-18.436 1.336-24.58-6.95-6.144-15.236-4.809-22.72 3.473-31.273 35.264-54.26 75.605-68.694 120.486-10.959 33.664-16.305 68.126-16.305 103.389zM484.881 670.938c4.809 0 8.286 0 11.759 0 25.929 0 51.857 0 78.050 0 22.989 0 30.204-7.48 30.204-30.723 0-21.639 0-43.279 0-64.918 0-3.473 0-7.213 0-12.289 7.215 0 13.363 0.267 19.511 0 8.823-0.267 14.434-4.809 15.236-13.892 0.802-8.282-5.346-14.694-14.699-15.762-3.746-0.536-7.219-0.268-10.961-0.268-136.32 0-272.639 0-408.958 0-4.544 0-9.356 0-13.9 0.802-8.019 1.603-12.028 7.213-11.494 15.228 0.535 7.48 4.812 12.289 12.296 13.625 1.871 0.267 4.009 0.267 5.88 0.267 16.572 0.267 16.572 0.268 16.572 16.564 0 45.951 0 91.901 0 137.851 0 21.907 7.752 29.654 29.402 29.654 26.195 0 52.657 0 78.851 0 3.475 0 7.217 0 11.761 0 0 16.564 0 31.791 0 47.019 0 21.105 8.019 28.852 29.135 28.852 31.006 0 62.012 0 93.018 0 19.78 0 27.797-8.015 28.066-28.051 0-36.867 0-74.001 0-110.869 0.269-4.007 0.269-7.747 0.269-13.090zM454.942 791.958c-30.738 0-60.14 0-89.275 0-0.267-1.603-0.535-2.137-0.535-2.939 0-72.933 0-145.866-0.267-218.799 0-6.679 3.207-7.48 8.553-7.48 23.254 0.267 46.776 0.535 70.029-0.267 9.088-0.267 11.763 2.404 11.763 11.488-0.269 68.926-0.269 137.851-0.269 206.777 0 3.74 0 6.946 0 11.22zM245.117 563.542c30.204 0 59.339 0 88.741 0 0 51.293 0 102.053 0 152.544-29.937 0-59.072 0-88.741 0 0-51.026 0-101.251 0-152.544zM485.414 563.542c29.67 0 58.803 0 88.474 0 0 25.914 0 51.293 0 76.673-29.935 0-59.072 0-88.474 0 0-25.914 0-51.026 0-76.673zM461.632 440.119c-14.434-39.27-28.066-75.605-41.697-112.205-0.535-1.335-1.069-2.406-1.336-3.742-2.406-8.013-6.95-14.157-16.038-13.892-8.553 0.269-12.563 6.148-15.236 13.628-5.613 17.097-11.761 33.929-17.908 50.761-4.544 12.821-9.088 25.643-14.167 39.804-5.88-10.419-10.959-19.503-15.77-28.318-3.742-7.215-9.622-10.419-17.908-10.419-24.324 0.269-48.647 0-72.971 0-11.494 0-18.443 6.144-18.176 15.497 0.267 8.815 6.95 14.426 18.176 14.426 19.78 0 39.292 0.265 59.072 0 6.147 0 9.623 1.6 12.563 7.211 7.484 14.43 15.77 28.587 23.789 42.748 3.475 6.144 7.752 10.684 15.77 10.15 8.286-0.533 12.028-6.144 14.434-13.090 9.356-26.982 18.978-53.965 29.135-82.82 1.871 4.813 3.475 8.017 4.544 11.221 12.563 33.929 25.395 67.857 37.687 102.054 2.94 7.748 6.95 14.157 16.038 13.892 8.555-0.269 12.565-6.144 15.236-13.628 8.819-23.241 18.445-46.481 26.995-69.726 2.406-6.413 5.615-8.282 12.297-8.282 19.247 0.533 38.758 0.269 58.001 0.269 11.763 0 18.445-5.611 18.445-14.963 0-9.348-6.682-14.959-18.445-14.959-24.589 0-49.446 0.269-74.039 0-9.353 0-14.967 3.742-18.176 12.288-6.413 16.563-12.83 32.862-20.314 52.096z" />
<glyph unicode="&#xe925;" glyph-name="close-circle-filled" d="M1003.947 621.653c-37.12 157.867-160.427 281.173-318.293 318.293-114.347 26.88-232.96 26.88-347.307 0-157.867-37.12-281.173-160.427-318.293-318.293-26.88-114.347-26.88-232.96 0-347.307 37.12-157.867 160.427-281.173 318.293-318.293 114.347-26.88 232.96-26.88 347.307 0 157.867 37.12 281.173 160.427 318.293 318.293 26.88 114.347 26.88 232.96 0 347.307zM667.733 363.947c20.053-19.627 20.053-52.053 0-71.68-19.627-20.053-52.053-20.053-71.68 0l-84.053 83.627-84.053-83.627c-19.627-20.053-52.053-20.053-71.68 0-20.053 19.627-20.053 52.053 0 71.68l83.627 84.053-83.627 84.053c-20.053 19.627-20.053 52.053 0 71.68 19.627 20.053 52.053 20.053 71.68 0l84.053-83.627 84.053 83.627c19.627 20.053 52.053 20.053 71.68 0 20.053-19.627 20.053-52.053 0-71.68l-83.627-84.053 83.627-84.053z" />
<glyph unicode="&#xe926;" glyph-name="approved" d="M1003.947 621.653c-37.12 158.293-160.427 281.6-318.293 318.293-114.347 26.88-232.96 26.88-347.307 0-157.867-37.12-281.173-160.427-318.293-318.293-26.88-114.347-26.88-232.96 0-347.307 37.12-158.293 160.427-281.6 318.293-318.293 114.347-26.88 232.533-26.88 346.88 0 158.293 37.12 281.6 160.427 318.293 318.293 26.88 114.347 26.88 232.533 0 346.88zM715.093 534.613l-239.36-284.16c-15.36-18.347-42.24-20.48-60.16-5.12-5.12 3.84-8.96 9.813-11.52 15.36l-95.147 113.067c-15.36 18.347-13.227 44.8 5.12 60.16 17.493 14.933 44.8 12.373 59.733-5.547l70.4-83.2 206.080 244.053c14.933 18.347 42.24 20.48 59.733 5.12 18.347-14.933 20.48-42.24 5.12-59.733z" />
<glyph unicode="&#xe927;" glyph-name="location" horiz-adv-x="911" d="M455.253 960c-252.16 0-455.253-210.773-455.253-468.907 0-128 49.92-264.96 130.133-370.773 79.787-104.96 194.133-184.32 325.12-184.32s245.333 79.36 325.12 184.32c80.213 105.813 130.133 242.773 130.133 370.773 0 258.133-203.093 468.907-455.253 468.907zM455.253 363.947c-89.173 0-161.28 72.96-161.28 162.987s72.107 162.56 161.28 162.56 161.28-72.96 161.28-162.56-72.107-162.987-161.28-162.987zM554.24 526.933c0-55.467-44.373-99.84-98.987-99.84s-98.987 44.373-98.987 99.84 44.373 99.413 98.987 99.413 98.987-44.373 98.987-99.413z" />
<glyph unicode="&#xe928;" glyph-name="locked" horiz-adv-x="911" d="M893.013 489.813c-23.893 89.6-87.467 162.987-171.093 201.813v11.947c0 116.48-81.067 218.453-196.693 247.893-46.080 11.52-93.867 11.52-139.947 0-115.627-29.44-196.693-131.413-196.693-247.893v-11.947c-83.627-38.827-147.2-112.213-171.093-201.813-28.587-106.24-21.76-218.027 19.2-320l4.693-11.947c43.947-109.227 144.213-188.16 263.253-206.933l38.827-5.973c73.813-11.947 149.76-11.947 223.573 0l38.827 5.973c119.040 18.773 219.307 97.707 263.253 206.933l4.693 11.947c40.96 101.973 47.787 213.76 19.2 320zM488.107 261.12c0-17.92-14.507-32-32.853-32s-32.853 14.080-32.853 32v106.667c0 17.493 14.507 32 32.853 32s32.853-14.507 32.853-32v-106.667zM637.013 717.653c-119.893 24.747-243.627 24.747-363.52 0h-2.133c5.973 73.813 59.733 137.387 134.827 156.16 32 8.107 66.133 8.107 98.133 0 75.093-18.773 128.853-82.347 134.827-156.587h-2.133z" />
<glyph unicode="&#xe929;" glyph-name="timer" d="M512.010 742.4c-191.943 0-347.735-155.792-347.735-347.735 0-191.939 155.792-347.73 347.735-347.73 191.939 0 347.73 155.791 347.73 347.73 0 191.943-155.791 347.735-347.73 347.735zM113.075 394.665c0 220.22 178.715 398.935 398.935 398.935 220.216 0 398.93-178.715 398.93-398.935 0-220.216-178.714-398.93-398.93-398.93-220.22 0-398.935 178.714-398.935 398.93zM512 657.062c21.207 0 38.4-17.192 38.4-38.4v-213.332c0-21.207-17.193-38.4-38.4-38.4s-38.4 17.193-38.4 38.4v213.332c0 21.208 17.192 38.4 38.4 38.4zM358.4 874.662c0 14.138 11.462 25.6 25.6 25.6h256c14.136 0 25.6-11.462 25.6-25.6s-11.464-25.6-25.6-25.6h-256c-14.138 0-25.6 11.462-25.6 25.6z" />
<glyph unicode="&#xe92a;" glyph-name="close" d="M261.17 759.163l543.058-543.058c16.662-16.662 16.662-43.677 0-60.34s-43.677-16.662-60.34 0l-543.058 543.058c-16.662 16.662-16.662 43.677 0 60.34s43.677 16.662 60.34 0zM218.503 216.107l543.058 543.058c16.662 16.662 43.677 16.662 60.34 0s16.662-43.677 0-60.34l-543.058-543.058c-16.662-16.662-43.677-16.662-60.34 0s-16.662 43.677 0 60.34z" />
<glyph unicode="&#xe92b;" glyph-name="group" d="M364.582 331.431l30.85-30.85c10.684-10.677 27.962-10.677 38.646 0l19.306 19.309c3.096-1.42 6.27-2.734 9.475-3.929v-27.303c0-15.066 12.261-27.327 27.327-27.327h43.626c15.066 0 27.327 12.261 27.327 27.327v27.303c3.205 1.195 6.38 2.509 9.475 3.929l19.309-19.313c10.65-10.643 27.989-10.65 38.642 0.003l30.85 30.85c10.653 10.653 10.653 27.989-0.003 38.646l-19.306 19.306c1.42 3.096 2.734 6.27 3.929 9.475h27.303c15.066 0 27.327 12.261 27.327 27.327v43.626c0 15.066-12.261 27.327-27.327 27.327h-27.303c-1.195 3.202-2.509 6.376-3.929 9.475l19.313 19.309c10.65 10.653 10.65 27.989-0.003 38.642l-30.853 30.85c-10.65 10.653-27.986 10.65-38.642 0l-19.306-19.309c-3.096 1.42-6.27 2.734-9.475 3.929v27.303c0 15.067-12.261 27.325-27.327 27.325h-43.626c-15.066 0-27.327-12.258-27.327-27.325v-27.303c-3.209-1.198-6.386-2.512-9.475-3.929l-19.306 19.306c-10.677 10.68-27.969 10.684-38.646 0l-30.85-30.846c-10.653-10.653-10.653-27.989 0.003-38.646l19.306-19.306c-1.42-3.096-2.734-6.27-3.929-9.475h-27.303c-15.067 0-27.325-12.261-27.325-27.327v-43.626c0-15.066 12.258-27.327 27.325-27.327h27.303c1.195-3.209 2.512-6.38 3.929-9.475l-19.313-19.309c-10.65-10.653-10.65-27.989 0.003-38.642zM381.846 428.861h-26.511v38.281h26.511c11.527 0 21.856 7.27 25.706 18.084 1.246 3.499 2.683 6.96 4.267 10.298 4.929 10.38 2.765 22.828-5.383 30.976l-18.746 18.746 27.064 27.068 18.749-18.749c8.144-8.144 20.593-10.312 30.983-5.376 3.325 1.577 6.786 3.014 10.288 4.26 10.82 3.854 18.091 14.182 18.091 25.706v26.515h38.277v-26.515c0-11.523 7.27-21.852 18.084-25.706 3.502-1.246 6.963-2.679 10.301-4.263 10.38-4.932 22.825-2.765 30.973 5.379l18.749 18.749 27.068-27.068-18.753-18.746c-8.144-8.148-10.308-20.596-5.379-30.976 1.587-3.338 3.021-6.799 4.267-10.295 3.85-10.817 14.182-18.087 25.706-18.087h26.515v-38.281h-26.518c-11.52 0-21.852-7.27-25.699-18.084-1.249-3.499-2.683-6.963-4.27-10.301-4.925-10.377-2.765-22.822 5.383-30.973l18.749-18.749-27.068-27.064-18.753 18.753c-8.144 8.141-20.586 10.301-30.976 5.376-3.331-1.584-6.793-3.021-10.288-4.263-10.82-3.854-18.091-14.182-18.091-25.706v-26.515h-38.281v26.515c0 11.52-7.27 21.852-18.084 25.702-3.499 1.246-6.963 2.683-10.301 4.267-10.38 4.932-22.828 2.761-30.973-5.379l-18.749-18.749-27.064 27.064 18.753 18.753c8.141 8.148 10.301 20.593 5.376 30.976-1.584 3.331-3.021 6.796-4.267 10.291-3.85 10.817-14.179 18.087-25.706 18.087zM512 367.94c44.145 0 80.060 35.915 80.060 80.060s-35.915 80.060-80.060 80.060c-44.141 0-80.060-35.915-80.060-80.060s35.919-80.060 80.060-80.060zM512 498.060c27.604 0 50.060-22.46 50.060-50.060 0-27.604-22.46-50.060-50.060-50.060-27.604 0-50.060 22.46-50.060 50.060 0 27.604 22.456 50.060 50.060 50.060zM188.436 583.127c104.18 0 188.437 84.661 188.437 188.435 0 103.906-84.533 188.438-188.437 188.438s-188.436-84.532-188.436-188.436c0-103.822 84.472-188.437 188.436-188.437zM288.842 649.102c-28.394-23.322-63.742-35.975-100.406-35.975-35.872 0-71.42 12.167-100.404 35.973 0 31.058 24.486 52.628 51.716 52.628h97.376c27.258 0.002 51.718-21.592 51.718-52.626zM188.436 930c87.364 0 158.437-71.074 158.437-158.436 0-35.92-12.033-69.070-32.253-95.674-10.852 32.41-41.478 55.84-77.496 55.84h-97.376c-36.014 0-66.642-23.43-77.494-55.84-20.22 26.604-32.254 59.754-32.254 95.674 0 87.362 71.074 158.436 158.436 158.436zM835.564 312.876c-103.905 0-188.44-84.535-188.44-188.44 0-103.861 84.384-188.436 188.44-188.436 103.53 0 188.436 84.156 188.436 188.436 0 103.905-84.535 188.44-188.436 188.44zM935.967 1.976c-58.18-47.79-142.169-48.169-200.81 0 0 31.058 24.487 52.623 51.715 52.623h97.376c27.262 0.003 51.719-21.589 51.719-52.623zM961.744 28.764c-10.851 32.41-41.479 55.839-77.493 55.839h-97.376c-36.014 0-66.642-23.429-77.493-55.839-20.221 26.604-32.256 59.754-32.256 95.672 0 87.364 71.076 158.437 158.437 158.437 87.364 0 158.437-71.072 158.437-158.437 0-35.919-12.035-69.069-32.256-95.672zM240.288 778.042c28.662 28.66 28.664 75.048 0 103.708h0.002c-28.658 28.658-75.048 28.666-103.708 0-28.664-28.658-28.666-75.044-0.004-103.708 28.658-28.658 75.048-28.664 103.71 0zM157.793 860.54c16.896 16.896 44.386 16.896 61.282 0h0.002c16.934-16.936 16.936-44.346-0.002-61.284-16.894-16.894-44.384-16.894-61.284 0-16.934 16.936-16.936 44.346 0.002 61.284zM136.583 130.915c28.586-28.587 75.114-28.59 103.708 0 28.592 28.593 28.592 75.121 0 103.711h-0.002c-28.59 28.59-75.116 28.59-103.708 0s-28.592-75.117 0.002-103.711zM157.793 213.412c16.9 16.896 44.388 16.896 61.284 0 16.896-16.893 16.896-44.387 0.002-61.283-16.894-16.899-44.388-16.899-61.284 0-16.896 16.896-16.896 44.39-0.002 61.283zM783.708 881.752c-28.59-28.592-28.59-75.116 0-103.708 28.624-28.622 75.151-28.564 103.711 0 28.662 28.66 28.665 75.048 0 103.708h0.003c-28.593 28.596-75.121 28.592-103.714 0zM866.208 799.256c-16.896-16.896-44.384-16.898-61.286 0-16.896 16.896-16.896 44.388 0 61.284s44.39 16.896 61.286 0v0c16.934-16.938 16.937-44.348 0-61.284zM887.419 234.626c-28.59 28.59-75.117 28.593-103.711 0-28.59-28.593-28.59-75.117 0.003-103.711 28.59-28.593 75.114-28.59 103.711 0 28.59 28.593 28.59 75.121-0.003 103.711zM866.208 152.129c-16.893-16.896-44.387-16.899-61.286-0.003-16.893 16.896-16.893 44.39 0 61.286 16.896 16.896 44.387 16.896 61.286 0 16.896-16.893 16.896-44.387 0-61.283zM606.382 756.564c8.284 0 14.998 6.716 14.998 15s-6.714 15-14.998 15h-188.764c-8.288 0-15.002-6.716-15.002-15s6.714-15 15.002-15h188.764zM417.621 139.438c-8.288 0-15.002-6.714-15.002-15.002s6.714-15.002 15.002-15.002h188.764c8.284 0 14.998 6.714 14.998 15.002s-6.714 15.002-14.998 15.002h-188.764zM203.437 353.618v188.764c0 8.288-6.714 15.002-15 15.002s-15-6.714-15-15.002v-188.764c0-8.284 6.714-14.998 15-14.998s15 6.714 15 14.998zM850.562 353.618v188.764c0 8.288-6.714 15.002-14.998 15.002-8.288 0-15.002-6.714-15.002-15.002v-188.764c0-8.284 6.714-14.998 15.002-14.998 8.284 0 14.998 6.714 14.998 14.998zM991.044 802.136c1.587-8.13 9.475-13.438 17.596-11.844 8.131 1.588 13.435 9.468 11.844 17.598-17.22 88.138-94.993 152.11-184.921 152.11-103.905 0-188.44-84.532-188.44-188.436 0-104.406 84.879-188.437 188.44-188.437 88.986 0 165.734 62.519 184.228 148.741 1.741 8.1-3.417 16.076-11.52 17.812-8.090 1.732-16.073-3.42-17.811-11.52-4.96-23.12-14.988-44.204-28.737-62.214-10.868 32.382-41.479 55.784-77.472 55.784h-97.376c-36.014 0-66.642-23.43-77.496-55.84-20.221 26.604-32.253 59.754-32.253 95.674-0.003 87.362 71.076 158.436 158.437 158.436 75.612 0 141.001-53.774 155.481-127.864zM786.876 701.73h97.376c28.518 0 51.715-23.2 51.715-51.718v-0.734c-27.655-22.678-62.863-36.151-100.403-36.151-35.355 0-71.062 11.871-100.407 35.975 0 31.058 24.487 52.628 51.719 52.628zM188.436-64c103.99 0 188.437 84.569 188.437 188.436 0 89.102-63.263 166.738-150.425 184.6-8.104 1.652-16.044-3.567-17.708-11.684s3.568-16.043 11.684-17.708c73.27-15.012 126.449-80.288 126.449-155.208 0-35.919-12.033-69.069-32.255-95.672-10.852 32.41-41.478 55.839-77.494 55.839h-97.376c-36.014 0-66.642-23.429-77.494-55.839-20.22 26.604-32.254 59.754-32.254 95.672 0 74.919 53.178 140.196 126.448 155.208 8.116 1.666 13.346 9.591 11.684 17.708s-9.588 13.339-17.708 11.684c-87.162-17.862-150.424-95.498-150.424-184.6 0-103.714 84.218-188.436 188.436-188.436zM139.748 54.603h97.376c27.26 0 51.718-21.593 51.718-52.627-58.080-47.705-142.092-48.23-200.81 0 0 31.058 24.486 52.627 51.716 52.627z" />
<glyph unicode="&#xe930;" glyph-name="reports" d="M0.021 923.7c9.162 26.737 28.075 36.3 55.936 36.3 162.252-0.641 324.531-0.401 486.784-0.134 4.595 0.187 9.178-0.626 13.431-2.383s8.073-4.416 11.196-7.794c58.214-58.621 116.638-117.046 175.262-175.274 3.17-2.856 5.675-6.376 7.334-10.309 1.655-3.933 2.428-8.183 2.257-12.448-0.457-34.991 0-69.981-0.294-104.945 0-6.304 1.493-9.99 7.373-13.355 67.529-39.772 110.217-97.868 127.42-174.499 0.695-2.906 1.169-5.862 1.412-8.841 0.589-8.444-3.017-14.263-11.511-16.030-8.495-1.762-14.959 2.325-17.442 10.953-3.315 11.486-5.53 23.347-9.323 34.726-33.873 101.338-133.564 166.645-241.084 158.124-44.582-3.691-87.181-20.063-122.761-47.184-35.575-27.121-62.648-63.858-78.016-105.868-15.369-42.014-18.391-87.543-8.71-131.217 9.68-43.678 31.661-83.669 63.341-115.251 31.68-31.586 71.74-53.444 115.443-62.993 43.708-9.553 89.233-6.396 131.204 9.097 41.967 15.492 78.626 42.671 105.643 78.327 27.021 35.652 43.268 78.298 46.827 122.889 0.934 11.699 6.81 18.244 16.026 17.762 9.617-0.482 14.989-8.013 13.943-20.169-3.413-42.957-17.301-84.429-40.439-120.781l36.514-36.941c11.298 5.047 14.827 4.352 25.378-6.199 29.705-29.675 59.486-59.243 89.033-89.079 20.915-21.129 26.927-46.477 17.442-74.441-9.267-27.405-29.385-43.029-58.018-46.903-21.372-2.884-40.789 2.671-56.23 17.655-32.482 31.569-64.273 63.863-96.324 95.863-7.322 7.317-7.027 15.253-1.579 22.758l-35.93 35.87c-0.495-0.064-0.986-0.171-1.468-0.32-14.771-5.342-18.697-15.36-18.483-31.142 1.173-52.621-0.35-105.293 0.747-157.914 0.589-27.913-9.724-46.609-36.437-55.612h-679.914c-8.538 2.492-16.311 7.091-22.6 13.38s-10.891 14.063-13.382 22.601v761.781c5.342 6.197 10.819 12.020 20.221 8.334s9.857-11.352 9.857-19.766c0-244.241 0-488.483 0-732.724 0-19.977 3.713-23.612 24.041-23.612h644.735c19.418 0 23.134 3.767 23.134 23.428v165.897c-16.777-4.006-32.695-8.734-48.994-11.43-15.095-2.539-30.37-3.849-45.675-3.93-108.617-0.32-217.255-0.183-325.895-0.158-2.671-0.119-5.347-0.073-8.014 0.132-3.561 0.171-6.924 1.69-9.405 4.25s-3.894 5.969-3.951 9.532c-0.423 3.375 0.423 6.784 2.373 9.566 1.95 2.786 4.865 4.745 8.179 5.5 3.549 0.849 7.203 1.173 10.845 0.964 62.988 0 125.967 0 188.938 0h10.231c-17.711 13.619-35.127 27.243-52.864 40.384-3.153 1.715-6.737 2.47-10.313 2.163-44.316 0.137-88.632 0-132.948 0-3.019 0-6.037-0.158-9.002 0.137-9.536 0.879-15.52 6.754-15.573 15.010 0 8.708 6.224 14.822 16.455 14.878 36.329 0.213 72.658 0 108.987 0.132h12.395c-4.915 7.373-8.762 13.060-12.475 18.697-16.818 25.749-28.686 54.413-34.993 84.514-1.549 7.317-4.648 8.841-11.379 8.678-18.966-0.401-37.985 0-56.978 0-2.673-0.102-5.35-0.030-8.014 0.213-3.866 0.307-7.467 2.086-10.061 4.966-2.594 2.884-3.984 6.652-3.883 10.526 0.038 1.929 0.46 3.827 1.241 5.585 0.782 1.762 1.908 3.349 3.311 4.668s3.057 2.342 4.862 3.012c1.805 0.674 3.727 0.977 5.651 0.892 18.993 0.294 37.985 0 56.978 0.137h11.406v43.349h-60.824c-15.333 0-22.519 4.727-22.626 14.797s7.266 15.172 22.359 15.198l63.977 0.188c0.979 0.175 1.937 0.452 2.858 0.828 8.393 38.652 25.172 74.988 49.151 106.442h-115.612c-3.66 0-8.308-1.015-10.685 0.775-4.648 3.419-10.685 8.36-11.139 13.035s4.728 10.871 9.002 14.557c2.671 2.324 8.254 1.683 12.528 1.71 44.637 0 89.3-0.134 133.935 0.32 5.73 0.426 11.217 2.484 15.817 5.93 16.239 11.485 32.055 23.719 49.071 36.54h-199.383c-3.65-0.189-7.308 0.125-10.872 0.935-3.294 0.93-6.162 2.976-8.113 5.788s-2.862 6.216-2.577 9.626c0.284 3.411 1.746 6.616 4.135 9.068s5.556 3.994 8.959 4.365c1.659 0.169 3.328 0.232 4.995 0.187h333.907c28.348-0.255 56.465-5.146 83.238-14.477 1.813-0.614 3.712-1.015 6.17-1.656v91.804h-10.684c-42.048 0-84.049 0-126.003 0-30.775 0-49.020 18.324-49.071 49.147 0 41.633 0 83.283 0 124.952v11.94h-483.286c-18.699 0-22.625-4.060-22.625-23.025 0-37.635 0-75.297 0-112.958 0-8.628-1.256-16.401-10.391-19.445s-15.093 2.057-19.634 9.455v139.99zM897.562 190.737l-55.667-55.718c28.715-29.38 57.058-59.857 87.083-88.572 14.583-13.969 39.083-10.522 53.427 4.275s16.533 38.972 2.428 53.662c-28.501 29.513-58.18 57.638-87.27 86.353zM565.926 905.297v-7.025c0-34.937 0-69.875 0-104.812 0-14.851 4.89-19.819 19.61-19.846 35.26 0 70.528 0 105.805 0 1.865 0.087 3.721 0.292 5.559 0.614l-130.974 131.069zM833.775 232.192l-33.31-33.442 28.553-30.020 34.035 34.057-29.278 29.406zM235.823 616.038c0-10.684 0.241-21.368 0-31.919-0.534-19.285-14.184-33.468-33.444-33.922-21.958-0.517-43.916-0.517-65.873 0-18.993 0.401-32.829 13.596-33.498 32.693-0.774 22.597-0.801 45.248 0 67.818 0.721 19.124 14.532 32.052 33.738 32.426 21.601 0.445 43.221 0.445 64.858 0 20.408-0.401 33.898-14.584 34.246-35.151 0.134-10.657-0.027-21.288-0.027-31.946zM205.691 616.946c0 9.295-0.214 18.697 0 27.913 0.187 5.85-1.897 8.521-8.014 8.467-18.948-0.178-37.888-0.178-56.818 0-5.85 0-8.468-2.003-8.414-8.013 0.187-18.938 0.16-37.876 0-56.813 0-5.689 1.736-8.547 8.014-8.467 18.939 0.214 37.879 0.24 56.818 0 6.758 0 8.601 2.938 8.387 9.108 0.027 9.215 0.027 18.511 0.027 27.806zM235.835 190.387c0-10.308 0.16-20.621 0-30.929-0.401-20.036-13.623-34.27-33.551-34.726-21.958-0.64-43.916-0.585-65.873 0-19.18 0.508-32.776 13.598-33.444 32.747-0.775 22.251-0.748 44.582 0 66.778 0.534 19.9 14.585 33.097 34.806 33.254 20.943 0.252 41.894 0.252 62.855 0 20.916-0.265 34.726-14.315 35.18-35.285 0.187-10.547 0.027-21.205 0.027-31.838zM132.751 191.91c0-9.617 0.214-19.26 0-28.902-0.214-6.49 2.484-8.759 8.869-8.653 18.592 0.247 37.193 0.247 55.802 0 6.572 0 8.655 2.671 8.575 8.973-0.303 18.594-0.303 37.193 0 55.799 0 6.596-2.671 8.708-8.869 8.602-18.699-0.239-37.21-0.269-55.802 0-6.705 0-8.762-2.671-8.575-8.947 0.187-8.922 0-17.899 0-26.871zM168.626 339.644c-10.338 0-20.675-0.158-30.986 0-19.901 0.35-34.005 12.902-34.726 32.508-0.802 22.622-0.802 45.406 0 67.951 0.721 19.26 14.558 31.812 33.925 32.051 21.673 0.324 43.337 0.324 64.992 0 20.008-0.346 33.577-14.208 33.871-34.347 0.267-21.367 0.267-42.739 0-64.107-0.294-19.951-14.211-33.707-34.138-34.163-10.953-0.081-21.931 0.132-32.937 0.107zM132.725 369.694c23.64 0 45.571-0.162 67.476 0.269 1.897 0 5.342 4.032 5.342 6.221 0.428 19.635 0.481 39.266 0 58.897-0.458 1.613-1.323 3.076-2.511 4.254s-2.66 2.031-4.274 2.479c-19.634 0.559-39.267 0.188-58.901 0.401-6.091 0-7.212-3.072-7.159-8.013 0-10.313 0-20.621 0-30.933l0.027-33.574zM824.299 403.887c-0.563-82.321-52.971-156.817-129.984-184.060-38.349-13.854-80.073-15.351-119.317-4.279-39.241 11.072-74.031 34.155-99.486 66.005-8.307 10.308-8.708 19.366-1.148 25.404 7.561 6.033 16.026 3.499 24.602-6.575 44.77-52.297 101.321-73.186 168.29-56.811 67.661 16.589 109.227 61.436 123.413 129.758 22.302 107.162-69.935 206.954-179.191 194.988-85.717-9.376-150.097-80.641-148.736-165.791 0.243-15.121 4.702-30.131 6.519-45.41 0.67-5.606 0.934-12.42-1.655-16.879-2.057-3.554-9.643-6.946-13.355-5.769-2.812 1.011-5.385 2.586-7.565 4.625s-3.925 4.501-5.124 7.232c-11.511 34.701-12.442 72.038-2.671 107.268 24.038 89.161 106.261 149.874 196.949 145.6 45.175-1.804 88.333-19.193 122.138-49.212 33.805-30.021 56.175-70.814 63.3-115.456 1.66-9.993 2.061-20.356 3.021-30.639zM609.237 428.928c15.629 14.72 30.882 28.608 45.598 43.059 20.757 20.352 49.365 21.717 68.544 2.671 19.183-19.046 18.219-47.249-1.762-67.87-24.341-25.109-48.751-50.138-73.22-75.085-22.784-23.159-49.442-23.211-72.815-0.346-11.917 11.644-24.043 23.185-35.742 34.884-20.275 20.058-21.372 48.636-2.671 67.708 18.697 19.072 46.558 18.539 67.127-0.508 2.112-1.707 3.925-3.55 4.941-4.514zM706.846 438.707c0.294 11.776-7.053 20.083-16.026 18.991-5.449-0.828-10.505-3.319-14.481-7.134-16.401-16.026-32.055-32.772-48.081-49.199-13.679-14.025-19.209-14.131-32.99-0.751-3.819 3.716-7.561 7.479-11.486 11.089-8.444 7.744-17.954 8.196-24.764 1.335-6.814-6.865-6.571-16.614 1.523-24.683 12.715-12.698 25.583-25.225 38.601-37.581 8.759-8.333 17.737-8.256 26.283 0.401 25.216 25.587 50.274 51.319 75.17 77.193 2.509 3.17 4.608 6.643 6.251 10.338z" />
<glyph unicode="&#xe932;" glyph-name="idea-1" d="M0 960h1024v-1024h-1024v1024z" />
<glyph unicode="&#xe933;" glyph-name="info-square" d="M326.997 810.667c-107.904 0-177.664-73.941-177.664-188.416v-348.501c0-114.475 69.76-188.416 177.664-188.416h369.835c108.032 0 177.835 73.941 177.835 188.416v348.501c0 114.475-69.803 188.416-177.749 188.416h-369.92zM696.832 21.333h-369.835c-144.555 0-241.664 101.461-241.664 252.416v348.501c0 150.955 97.109 252.416 241.664 252.416h369.92c144.597 0 241.749-101.461 241.749-252.416v-348.501c0-150.955-97.152-252.416-241.835-252.416zM511.748 245.333c-17.664 0-32 14.336-32 32v170.667c0 17.664 14.336 32 32 32s32-14.336 32-32v-170.667c0-17.664-14.336-32-32-32zM511.962 567.292c-23.595 0-42.88 19.072-42.88 42.667s18.901 42.667 42.453 42.667h0.427c23.595 0 42.667-19.072 42.667-42.667s-19.072-42.667-42.667-42.667z" />
<glyph unicode="&#xe937;" glyph-name="close-circle" d="M143.056 317.884v0zM143.056 578.115v0zM880.943 578.115v0zM880.943 317.884v0zM642.116 79.057v0zM381.885 79.057v0zM381.885 816.944v0zM642.116 816.944v0zM174.211 325.193c-18.947 80.777-18.947 164.838 0 245.615l-62.309 14.616c-21.202-90.387-21.202-184.459 0-274.848l62.309 14.618zM849.788 570.807c18.948-80.776 18.948-164.838 0-245.615l62.31-14.613c21.201 90.385 21.201 184.457 0 274.843l-62.31-14.615zM634.807 110.212c-80.777-18.948-164.838-18.948-245.615 0l-14.615-62.31c90.387-21.201 184.458-21.201 274.843 0l-14.613 62.31zM389.193 785.789c80.776 18.947 164.838 18.947 245.615 0l14.613 62.309c-90.385 21.202-184.457 21.202-274.843 0l14.615-62.309zM389.193 110.212c-106.671 25.020-189.961 108.309-214.982 214.98l-62.309-14.618c30.572-130.334 132.34-232.102 262.676-262.673l14.615 62.31zM649.421 47.902c130.338 30.571 232.107 132.339 262.677 262.677l-62.31 14.613c-25.020-106.671-108.309-189.961-214.98-214.98l14.613-62.31zM634.807 785.789c106.671-25.021 189.961-108.311 214.98-214.982l62.31 14.615c-30.571 130.336-132.339 232.103-262.677 262.676l-14.613-62.309zM374.577 848.098c-130.336-30.572-232.103-132.34-262.676-262.675l62.309-14.616c25.021 106.671 108.311 189.961 214.982 214.982l-14.615 62.309zM600.145 510.707c12.497 12.497 12.497 32.757 0 45.254s-32.759 12.497-45.257 0l45.257-45.254zM404.039 405.111c-12.497-12.497-12.497-32.759 0-45.257s32.756-12.497 45.254 0l-45.254 45.257zM554.889 359.855c12.497-12.497 32.759-12.497 45.257 0s12.497 32.759 0 45.257l-45.257-45.257zM449.293 555.961c-12.497 12.497-32.757 12.497-45.254 0s-12.497-32.756 0-45.254l45.254 45.254zM554.889 555.961l-150.849-150.849 45.254-45.257 150.852 150.852-45.257 45.254zM600.145 405.111l-150.852 150.849-45.254-45.254 150.849-150.852 45.257 45.257z" />
<glyph unicode="&#xe93e;" glyph-name="moon" d="M326.725 523.012c4.877 13.762 24.34 13.762 29.217 0l13.335-37.636c1.561-4.403 5.027-7.872 9.432-9.434l37.635-13.333c13.761-4.877 13.761-24.341 0-29.218l-37.635-13.333c-4.406-1.562-7.872-5.030-9.432-9.434l-13.335-37.636c-4.877-13.76-24.34-13.76-29.217 0l-13.335 37.636c-1.561 4.403-5.027 7.872-9.432 9.434l-37.635 13.333c-13.763 4.877-13.763 24.341 0 29.218l37.635 13.333c4.406 1.562 7.872 5.030 9.432 9.434l13.335 37.636zM540.058 309.679c4.877 13.76 24.341 13.76 29.218 0l13.333-37.636c1.562-4.403 5.030-7.872 9.434-9.434l37.636-13.333c13.76-4.877 13.76-24.341 0-29.218l-37.636-13.333c-4.403-1.562-7.872-5.030-9.434-9.434l-13.333-37.636c-4.877-13.76-24.341-13.76-29.218 0l-13.333 37.636c-1.562 4.403-5.030 7.872-9.434 9.434l-37.636 13.333c-13.76 4.877-13.76 24.341 0 29.218l37.636 13.333c4.403 1.562 7.872 5.030 9.434 9.434l13.333 37.636zM596.463 730.977c7.411 20.919 36.996 20.919 44.407 0l25.404-71.698c2.377-6.696 7.642-11.964 14.34-14.336l71.697-25.405c20.919-7.412 20.919-36.997 0-44.409l-71.697-25.405c-6.699-2.373-11.964-7.64-14.34-14.336l-25.404-71.699c-7.411-20.919-36.996-20.919-44.407 0l-25.404 71.699c-2.377 6.696-7.642 11.964-14.34 14.336l-71.697 25.405c-20.919 7.412-20.919 36.997 0 44.409l71.697 25.405c6.699 2.372 11.964 7.64 14.34 14.336l25.404 71.698z" />
</font>
</defs>
</svg>
